<?xml version="1.0" encoding="UTF-8" standalone="no"?>
<!-- Created with Inkscape (http://www.inkscape.org/) -->

<svg
   xmlns:dc="http://purl.org/dc/elements/1.1/"
   xmlns:cc="http://creativecommons.org/ns#"
   xmlns:rdf="http://www.w3.org/1999/02/22-rdf-syntax-ns#"
   xmlns:svg="http://www.w3.org/2000/svg"
   xmlns="http://www.w3.org/2000/svg"
   xmlns:sodipodi="http://sodipodi.sourceforge.net/DTD/sodipodi-0.dtd"
   xmlns:inkscape="http://www.inkscape.org/namespaces/inkscape"
   id="svg3040"
   version="1.1"
   inkscape:version="0.48.1 "
   width="977.06555"
   height="185.05084"
   xml:space="preserve"
   sodipodi:docname="Logo-onside.svg"
   inkscape:export-filename="/home/graingert/Dropbox/Atheist/Logo-onside.png"
   inkscape:export-xdpi="299.96872"
   inkscape:export-ydpi="299.96872"><metadata
     id="metadata3046"><rdf:RDF><cc:Work
         rdf:about=""><dc:format>image/svg+xml</dc:format><dc:type
           rdf:resource="http://purl.org/dc/dcmitype/StillImage" /><dc:title /></cc:Work></rdf:RDF></metadata><defs
     id="defs3044"><inkscape:perspective
       sodipodi:type="inkscape:persp3d"
       inkscape:vp_x="0 : 0.5 : 1"
       inkscape:vp_y="0 : 1000 : 0"
       inkscape:vp_z="1 : 0.5 : 1"
       inkscape:persp3d-origin="0.5 : 0.33333333 : 1"
       id="perspective3048" /><clipPath
       clipPathUnits="userSpaceOnUse"
       id="clipPath3056"><path
         d="m 8.612,349.961 219.547,0 0,184.245 -219.547,0 0,-184.245 z"
         id="path3058"
         inkscape:connector-curvature="0" /></clipPath><clipPath
       clipPathUnits="userSpaceOnUse"
       id="clipPath3064"><path
         d="m 15.3228,527.096 206.3952,0 0,-167.687 -206.3952,0 0,167.687 z"
         id="path3066"
         inkscape:connector-curvature="0" /></clipPath><clipPath
       clipPathUnits="userSpaceOnUse"
       id="clipPath3120"><path
         d="m 0,595.276 841.89,0 L 841.89,0 0,0 0,595.276 z"
         id="path3122"
         inkscape:connector-curvature="0" /></clipPath><clipPath
       clipPathUnits="userSpaceOnUse"
       id="clipPath3136"><path
         d="m 10.611,78.968 219.547,0 0,184.246 -219.547,0 0,-184.246 z"
         id="path3138"
         inkscape:connector-curvature="0" /></clipPath><clipPath
       clipPathUnits="userSpaceOnUse"
       id="clipPath3144"><path
         d="m 17.3208,256.103 206.3952,0 0,-167.686 -206.3952,0 0,167.686 z"
         id="path3146"
         inkscape:connector-curvature="0" /></clipPath><clipPath
       clipPathUnits="userSpaceOnUse"
       id="clipPath3200"><path
         d="m 0,595.276 841.89,0 L 841.89,0 0,0 0,595.276 z"
         id="path3202"
         inkscape:connector-curvature="0" /></clipPath><inkscape:perspective
       id="perspective3220"
       inkscape:persp3d-origin="0.5 : 0.33333333 : 1"
       inkscape:vp_z="1 : 0.5 : 1"
       inkscape:vp_y="0 : 1000 : 0"
       inkscape:vp_x="0 : 0.5 : 1"
       sodipodi:type="inkscape:persp3d" /><inkscape:perspective
       id="perspective3017"
       inkscape:persp3d-origin="0.5 : 0.33333333 : 1"
       inkscape:vp_z="1 : 0.5 : 1"
       inkscape:vp_y="0 : 1000 : 0"
       inkscape:vp_x="0 : 0.5 : 1"
       sodipodi:type="inkscape:persp3d" /></defs><sodipodi:namedview
     pagecolor="#ffffff"
     bordercolor="#666666"
     borderopacity="1"
     objecttolerance="10"
     gridtolerance="10"
     guidetolerance="10"
     inkscape:pageopacity="0"
     inkscape:pageshadow="2"
     inkscape:window-width="1280"
     inkscape:window-height="1002"
     id="namedview3042"
     showgrid="false"
     inkscape:zoom="0.46184145"
     inkscape:cx="523.7061"
     inkscape:cy="162.38014"
     inkscape:window-x="1272"
     inkscape:window-y="-8"
     inkscape:window-maximized="1"
     inkscape:current-layer="text3166"
     fit-margin-top="0"
     fit-margin-left="0"
     fit-margin-right="0"
     fit-margin-bottom="0"><inkscape:grid
       type="xygrid"
       id="grid3214"
       empspacing="5"
       visible="true"
       enabled="true"
       snapvisiblegridlinesonly="true" /></sodipodi:namedview><g
     id="g3050"
     inkscape:groupmode="layer"
     inkscape:label="Logo-onside-x2-notthick"
     transform="matrix(1.25,0,0,-1.25,-77.421233,299.4913)">


<g
   id="g3132"
   transform="matrix(0.84811692,0,0,0.86006275,47.24656,15.584055)"><g
     id="g3134"
     clip-path="url(#clipPath3136)"><g
       id="g3140"><g
         id="g3142" /><g
         id="g3148"><g
           clip-path="url(#clipPath3144)"
           id="g3150"><g
             transform="translate(218.6982,120.7734)"
             id="g3152"><path
               d="m 0,0 c 1.941,-2.181 5.249,-6.273 4.955,-9.912 -0.462,-5.828 -10.166,-7.407 -17.029,-7.432 -29.315,-0.094 -55.886,9.689 -79.584,16.414 l 5.267,2.168 c 17.632,-4.967 35.121,-11.256 56.664,-13.315 5.723,-0.548 17.945,-1.13 18.58,4.025 0.414,3.339 -3.955,7.036 -6.194,8.981 -8.348,7.243 -18.322,12.133 -28.176,17.341 l 10.529,5.574 c 5.784,-2.831 12.467,-7.055 18.579,-11.149 C -10.429,8.688 -4.307,4.83 0,0"
               style="fill:#293f9a;fill-opacity:1;fill-rule:nonzero;stroke:none"
               id="path3154"
               inkscape:connector-curvature="0" /></g><g
             transform="translate(199.8091,190.1328)"
             id="g3156"><path
               d="m 0,0 c 8.763,0.418 22.877,-0.104 23.844,-6.813 0.734,-5.078 -5.135,-10.614 -8.361,-13.624 -4.518,-4.211 -8.766,-6.655 -12.696,-9.287 -26.602,-17.817 -57.965,-30.234 -90.766,-41.298 l -0.58,10.333 c 28.368,9.757 58.6,21.153 82.366,36.846 3.354,2.211 7.042,4.549 9.603,7.125 1.514,1.518 4.567,4.946 4.332,7.432 -0.635,6.791 -18.942,4.177 -26.009,3.094 -14.646,-2.248 -28.008,-5.927 -41.184,-9.907 -4.255,-1.285 -7.806,-2.239 -7.806,-2.239 l -5.521,2.054 C -51.087,-10.129 -26.188,-1.235 0,0"
               style="fill:#293f9a;fill-opacity:1;fill-rule:nonzero;stroke:none"
               id="path3158"
               inkscape:connector-curvature="0" /></g><g
             transform="translate(143.7612,148.0234)"
             id="g3160"><path
               d="M 0,0 0,-2.168 -3.601,-3.76 -3.716,1.238 C -3.688,1.232 0,0 0,0"
               style="fill:#293f9a;fill-opacity:1;fill-rule:nonzero;stroke:none"
               id="path3162"
               inkscape:connector-curvature="0" /></g><g
             transform="translate(143.458,126.1152)"
             id="g3164"><path
               d="m 0,0 -0.031,-3.623 c 0,0 -3.735,1.053 -3.765,1.053 l 0.021,1.139 C -3.775,-1.431 0,-0.038 0,0"
               style="fill:#293f9a;fill-opacity:1;fill-rule:nonzero;stroke:none"
               id="path3166"
               inkscape:connector-curvature="0" /></g><g
             transform="translate(143.4546,167.5313)"
             id="g3168"><path
               d="m 0,0 -3.716,1.549 c 0.003,0 0.003,0.866 0.003,0.866 l 3.478,1.121 C -0.229,3.524 0,0 0,0"
               style="fill:#293f9a;fill-opacity:1;fill-rule:nonzero;stroke:none"
               id="path3170"
               inkscape:connector-curvature="0" /></g><g
             transform="translate(138.8066,111.793)"
             id="g3172"><path
               d="M 0,0 3.719,-0.932 C 3.381,-8.751 2.217,-15.979 1.462,-23.376 c -0.013,0 -3.295,2.96 -3.295,2.96 C -1.053,-13.869 -0.241,-7.088 0,0"
               style="fill:#293f9a;fill-opacity:1;fill-rule:nonzero;stroke:none"
               id="path3174"
               inkscape:connector-curvature="0" /></g><g
             transform="translate(151.8125,148.9492)"
             id="g3176"><path
               d="m 0,0 c -12.993,5.688 -26.6,10.614 -40.488,15.408 l 0.365,10.064 C -21.794,19.96 -4.642,12.813 11.829,5.44 11.829,5.359 0,0 0,0"
               style="fill:#293f9a;fill-opacity:1;fill-rule:nonzero;stroke:none"
               id="path3178"
               inkscape:connector-curvature="0" /></g><g
             transform="translate(142.6494,182.9395)"
             id="g3180"><path
               d="m 0,0 c -1.402,-0.424 -2.607,-0.808 -3.694,-1.114 0,0 -0.319,2.549 -0.424,3.684 -1.397,15.437 -2.654,30.455 -7.153,43.951 -1.282,3.839 -3.821,10.822 -7.742,10.84 -2.527,0.013 -5.047,-3.821 -6.193,-6.193 -3.765,-7.788 -5.791,-19.694 -7.125,-30.036 -3.843,-29.87 -4.908,-65.311 -1.855,-97.236 0.282,-2.972 0.821,-9.135 0.821,-9.135 l -8.531,-8.413 c -5.265,44.773 -5.54,107.89 6.472,146.985 2.455,7.998 4.796,15.681 11.147,19.201 6.06,3.358 11.386,-7.59 13.312,-12.388 5.075,-12.631 6.977,-26.222 8.984,-41.182 0.452,-3.363 0.916,-7.73 1.238,-11.457 C -0.594,5.791 0,0 0,0"
               style="fill:#293f9a;fill-opacity:1;fill-rule:nonzero;stroke:none"
               id="path3182"
               inkscape:connector-curvature="0" /></g><g
             transform="translate(93.5068,123.8291)"
             id="g3184"><path
               d="m 0,0 c 0.047,-0.096 0.555,-10.185 0.555,-10.185 -18.01,-4.121 -37.15,-10.214 -59.297,-10.214 -5.4,0 -16.254,1 -17.341,6.505 -0.69,3.471 2.509,8.218 4.955,10.838 7.268,7.791 18.161,14.761 27.247,19.818 7.078,3.942 14.04,7.237 20.75,10.528 7.425,3.646 15.204,6.992 22.816,10.176 l -0.032,-4.02 c 0,0 -6.992,-3.004 -8.54,-3.678 -15.058,-6.58 -28.33,-12.758 -41.494,-21.986 -2.515,-1.761 -12.659,-7.98 -11.767,-13.315 0.443,-2.669 5.199,-3.775 8.051,-4.029 9.73,-0.851 19.716,1.242 28.798,3.1 C -16.368,-4.635 -7.589,-2.278 0,0"
               style="fill:#293f9a;fill-opacity:1;fill-rule:nonzero;stroke:none"
               id="path3186"
               inkscape:connector-curvature="0" /></g><g
             transform="translate(93.0767,136.457)"
             id="g3188"><path
               d="m 0,0 0.083,-4.007 c -8.351,2.902 -15.718,6.744 -23.406,10.309 l 3.719,2.164 C -13,5.784 -6.834,2.459 0,0"
               style="fill:#293f9a;fill-opacity:1;fill-rule:nonzero;stroke:none"
               id="path3190"
               inkscape:connector-curvature="0" /></g><g
             transform="translate(41.2646,179.6084)"
             id="g3192"><path
               d="m 0,0 c -3.963,-0.239 -9.435,-1.149 -9.906,-4.336 -0.473,-3.18 3.183,-6.419 5.264,-8.36 6.128,-5.72 24.287,-15.842 24.287,-15.842 l -3.726,-2.121 c -0.061,0 -5.793,3.396 -8.849,5.199 -8.571,5.047 -18.344,10.757 -25.027,17.718 -2.375,2.469 -6.71,6.952 -5.883,11.767 0.771,4.499 8.463,6.125 13.934,6.499 C 1.443,11.309 13.009,9.479 23.537,7.432 33.892,5.415 43.903,2.715 52.952,0.307 L 52.332,-9.6 C 44.619,-7.711 36.357,-5.262 27.563,-3.406 18.886,-1.576 9.185,0.554 0,0"
               style="fill:#293f9a;fill-opacity:1;fill-rule:nonzero;stroke:none"
               id="path3194"
               inkscape:connector-curvature="0" /></g></g></g></g></g></g>






<g
   id="g3043"
   transform="translate(47.972709,-198.01033)"><text
     transform="scale(1,-1)"
     sodipodi:linespacing="125%"
     id="text2930-1"
     y="-300.86856"
     x="207.70499"
     style="font-size:50.92800139999999900px;font-style:normal;font-variant:normal;font-weight:normal;font-stretch:normal;text-align:start;line-height:125%;writing-mode:lr-tb;text-anchor:start;fill:none;fill-opacity:1;stroke:none;font-family:TitilliumText22L Rg;-inkscape-font-specification:TitilliumText22L Rg"
     xml:space="preserve"><tspan
       style="font-size:50.92800139999999900px;font-style:normal;font-variant:normal;font-weight:normal;font-stretch:normal;text-align:start;line-height:125%;writing-mode:lr-tb;text-anchor:start;font-family:TitilliumText22L Rg;-inkscape-font-specification:TitilliumText22L Rg;fill:none"
       y="-300.86856"
       x="207.70499"
       id="tspan2932-7"
       sodipodi:role="line">University of Southampton</tspan></text>
<text
     transform="scale(1,-1)"
     sodipodi:linespacing="125%"
     id="text2926-4"
     y="-371.02823"
     x="209.42818"
     style="font-size:72.95999908000000300px;font-style:normal;font-variant:normal;font-weight:normal;font-stretch:normal;text-align:start;line-height:125%;writing-mode:lr-tb;text-anchor:start;fill:none;fill-opacity:1;stroke:none;font-family:TitilliumText22L Rg;-inkscape-font-specification:TitilliumText22L Rg"
     xml:space="preserve"><tspan
       style="font-size:91.19999694999999900px;fill:none"
       y="-371.02823"
       x="209.42818"
       id="tspan2928-0"
       sodipodi:role="line">Atheist Society</tspan></text>
<g
     transform="scale(1,-1)"
     style="font-size:50.9280014px;font-style:normal;font-variant:normal;font-weight:normal;font-stretch:normal;text-align:start;line-height:125%;writing-mode:lr-tb;text-anchor:start;fill:#000000;fill-opacity:1;stroke:none;font-family:TitilliumText22L Rg;-inkscape-font-specification:TitilliumText22L Rg"
     id="text3162"><path
       d="m 215.59873,-311.5633 0,-24.75069 -3.92141,0 0,24.75069 c 0.0233,4.00735 1.08432,6.87838 3.18296,8.61308 2.09862,1.73472 5.09484,2.58138 8.98868,2.54001 4.04021,0.0382 7.12556,-0.81484 9.25604,-2.5591 2.13043,-1.74426 3.20415,-4.60892 3.22115,-8.59399 l 0,-24.75069 -3.87047,0 0,24.75069 c -0.0276,2.73629 -0.80001,4.66091 -2.3172,5.77388 -1.51723,1.11298 -3.61374,1.64984 -6.28952,1.61058 -2.52729,0.0361 -4.52618,-0.50715 -5.9967,-1.62967 -1.47054,-1.12252 -2.22171,-3.04078 -2.25353,-5.75479 z"
       style="line-height:125%;fill:#000000;font-family:TitilliumText22L Rg;-inkscape-font-specification:TitilliumText22L Rg"
       id="path3171" /><path
       d="m 248.58097,-300.86856 0,-20.57465 c 0.0934,-0.0785 0.88697,-0.39254 2.38085,-0.94216 1.49386,-0.54956 3.12778,-0.86362 4.90176,-0.94215 2.25245,-0.0371 3.73147,0.66102 4.43704,2.09439 0.70554,1.43341 1.02596,3.82487 0.96126,7.17439 l 0,13.19018 3.76862,0 0,-13.24111 c 0.0795,-4.58557 -0.47428,-7.86613 -1.6615,-9.84171 -1.18727,-1.97553 -3.48536,-2.93891 -6.89429,-2.89013 -1.91085,0.0913 -3.67846,0.45625 -5.30281,1.09494 -1.62438,0.63874 -2.48803,1.00372 -2.59093,1.09494 l 0,-1.6806 -3.81955,0 0,25.46367 z"
       style="line-height:125%;fill:#000000;font-family:TitilliumText22L Rg;-inkscape-font-specification:TitilliumText22L Rg"
       id="path3173" /><path
       d="m 273.40126,-300.86856 3.76862,0 0,-25.46367 -3.76862,0 z m 0,-31.21846 3.76862,0 0,-4.43068 -3.76862,0 z"
       style="line-height:125%;fill:#000000;font-family:TitilliumText22L Rg;-inkscape-font-specification:TitilliumText22L Rg"
       id="path3175" /><path
       d="m 282.53412,-326.33223 7.18076,25.46367 7.6391,0 7.23168,-25.46367 -3.87047,0 -6.21314,22.20432 -1.88431,0 -6.11128,-22.20432 z"
       style="line-height:125%;fill:#000000;font-family:TitilliumText22L Rg;-inkscape-font-specification:TitilliumText22L Rg"
       id="path3177" /><path
       d="m 319.0199,-303.82235 c -2.48272,-0.005 -4.22698,-0.69494 -5.23278,-2.06892 -1.00583,-1.37397 -1.50237,-3.40045 -1.48963,-6.07945 l 16.85695,0 0.20371,-2.95379 c -0.006,-4.15056 -0.87215,-7.18073 -2.59729,-9.09053 -1.72519,-1.90975 -4.27155,-2.85191 -7.6391,-2.82647 -3.27528,-0.0466 -5.86621,0.97614 -7.77279,3.06838 -1.9066,2.09228 -2.88058,5.53412 -2.92196,10.32551 -0.0552,4.33308 0.67903,7.59667 2.20261,9.79079 1.52357,2.19412 4.16755,3.2933 7.93193,3.29754 2.21639,-0.034 4.37868,-0.16976 6.48687,-0.40742 2.10816,-0.23766 3.23917,-0.37346 3.39304,-0.40741 l -0.10185,-3.10657 c -0.14963,0.0191 -1.22547,0.0955 -3.22753,0.22917 -2.00209,0.13369 -4.03282,0.21008 -6.09218,0.22917 z m -6.72241,-11.25494 c 0.0106,-2.95483 0.60051,-5.09166 1.76973,-6.41048 1.1692,-1.31878 2.85404,-1.96599 5.05454,-1.9416 2.20577,-0.0339 3.82908,0.59417 4.86992,1.88431 1.04081,1.29018 1.55645,3.4461 1.54692,6.46777 z"
       style="line-height:125%;fill:#000000;font-family:TitilliumText22L Rg;-inkscape-font-specification:TitilliumText22L Rg"
       id="path3179" /><path
       d="m 336.1732,-300.86856 3.81955,0 0,-18.48663 c 0.07,-0.0891 0.94852,-0.56018 2.63549,-1.41323 1.68696,-0.85301 3.76225,-1.55326 6.22587,-2.10075 l 0,-3.97234 c -2.53047,0.56235 -4.62485,1.32202 -6.28316,2.279 -1.65833,0.95703 -2.51773,1.48753 -2.5782,1.59148 l 0,-3.3612 -3.81955,0 z"
       style="line-height:125%;fill:#000000;font-family:TitilliumText22L Rg;-inkscape-font-specification:TitilliumText22L Rg"
       id="path3181" /><path
       d="m 371.03162,-325.87389 c -0.14538,-0.0403 -1.20424,-0.20156 -3.1766,-0.48381 -1.97239,-0.2822 -3.98614,-0.44347 -6.04125,-0.48381 -2.40951,-0.0403 -4.51663,0.49869 -6.32136,1.61695 -1.80474,1.1183 -2.75326,3.05778 -2.84557,5.81845 -0.0149,2.42224 0.70237,4.12194 2.15168,5.0991 1.44931,0.97718 3.71981,1.67106 6.81154,2.08165 2.49542,0.36075 4.20149,0.8106 5.11819,1.34958 0.91668,0.53899 1.34956,1.44719 1.29865,2.72461 -0.006,1.69758 -0.55385,2.86042 -1.6424,3.48852 -1.08859,0.62811 -2.68007,0.92518 -4.77444,0.89123 -0.92142,-0.0107 -2.03239,-0.0855 -3.33292,-0.22446 -1.30054,-0.13894 -2.45677,-0.27789 -3.46871,-0.41685 -1.01195,-0.13894 -1.54575,-0.21376 -1.60138,-0.22445 l -0.20371,3.31027 c 0.0503,0.012 0.58346,0.0956 1.59949,0.25087 1.01603,0.15529 2.21313,0.31059 3.59132,0.46589 1.37817,0.15529 2.63564,0.23892 3.7724,0.25086 3.10973,0.0414 5.53515,-0.53792 7.27624,-1.73789 1.74106,-1.19998 2.62592,-3.2689 2.65459,-6.20677 0.0382,-2.40207 -0.64934,-4.11662 -2.06256,-5.14367 -1.41325,-1.02702 -3.78137,-1.77395 -7.10436,-2.2408 -2.46468,-0.34587 -4.13043,-0.78724 -4.99725,-1.32411 -0.86683,-0.53684 -1.27213,-1.38563 -1.21589,-2.54637 0.0318,-1.47369 0.55383,-2.48587 1.56602,-3.03654 1.01217,-0.55063 2.32355,-0.81163 3.93414,-0.78301 1.1361,0.0101 2.38917,0.0805 3.75919,0.21126 1.36999,0.13079 2.55892,0.26157 3.5668,0.39232 1.00784,0.1308 1.5366,0.20122 1.58629,0.21126 z"
       style="line-height:125%;fill:#000000;font-family:TitilliumText22L Rg;-inkscape-font-specification:TitilliumText22L Rg"
       id="path3183" /><path
       d="m 378.83814,-300.86856 3.76863,0 0,-25.46367 -3.76863,0 z m 0,-31.21846 3.76863,0 0,-4.43068 -3.76863,0 z"
       style="line-height:125%;fill:#000000;font-family:TitilliumText22L Rg;-inkscape-font-specification:TitilliumText22L Rg"
       id="path3185" /><path
       d="m 403.6057,-322.86917 0,-3.46306 -8.04652,0 0,-7.79189 -3.81955,0 0,7.79189 -3.61584,0 0,3.46306 3.61584,0 0,13.24111 c -0.0329,3.59674 0.49123,6.06672 1.57238,7.40992 1.08114,1.34321 2.91664,1.9798 5.50652,1.90978 0.99413,-0.0233 2.07421,-0.11671 3.24025,-0.2801 1.16601,-0.16339 1.80048,-0.25676 1.90341,-0.2801 l -0.20371,-3.31028 c -0.0998,0.0106 -0.67692,0.053 -1.73153,0.12732 -1.05463,0.0743 -1.9883,0.11671 -2.801,0.12732 -1.62332,0.052 -2.6546,-0.43394 -3.09384,-1.4578 -0.43926,-1.02384 -0.63023,-2.89754 -0.57293,-5.6211 l 0,-11.86607 z"
       style="line-height:125%;fill:#000000;font-family:TitilliumText22L Rg;-inkscape-font-specification:TitilliumText22L Rg"
       id="path3187" /><path
       d="m 406.4722,-326.33223 7.23168,25.46367 3.71769,0 -3.25935,11.30587 3.81956,0 10.59288,-36.76954 -3.81955,0 -6.36592,21.7969 -1.73153,0 -6.36591,-21.7969 z"
       style="line-height:125%;fill:#000000;font-family:TitilliumText22L Rg;-inkscape-font-specification:TitilliumText22L Rg"
       id="path3189" /><path
       d="m 455.25071,-326.84151 c -3.97659,-0.0106 -6.8073,1.04192 -8.49214,3.1575 -1.68485,2.11563 -2.50393,5.358 -2.45724,9.72712 -0.0817,4.64395 0.66735,8.07517 2.24717,10.29369 1.5798,2.21852 4.48053,3.31983 8.70221,3.30391 4.2174,-0.0117 7.10116,-1.15965 8.65128,-3.44396 1.55008,-2.2843 2.28216,-5.63489 2.19624,-10.05178 0.0286,-4.35109 -0.81804,-7.60407 -2.54,-9.75896 -1.722,-2.15484 -4.49117,-3.23067 -8.30752,-3.22752 z m 0,23.07009 c -2.92197,0.0212 -4.84448,-0.78513 -5.76753,-2.41905 -0.92306,-1.63391 -1.34321,-4.22272 -1.26045,-7.76642 -0.0446,-3.445 0.45197,-5.88739 1.48963,-7.32717 1.03763,-1.43974 2.88375,-2.13787 5.53835,-2.09439 2.42752,-0.0265 4.193,0.71407 5.29644,2.22171 1.10341,1.50768 1.64663,3.94158 1.62967,7.30171 0.087,3.36121 -0.31619,5.88211 -1.20952,7.56271 -0.89337,1.6806 -2.7989,2.5209 -5.71659,2.5209 z"
       style="line-height:125%;fill:#000000;font-family:TitilliumText22L Rg;-inkscape-font-specification:TitilliumText22L Rg"
       id="path3191" /><path
       d="m 477.01455,-322.86917 7.4354,0 0,-3.46306 -7.4354,0 0,-2.24081 c -0.0191,-2.29594 0.261,-3.8662 0.8403,-4.71078 0.57929,-0.84451 1.57237,-1.24344 2.97925,-1.19679 0.8265,0.004 1.73258,0.0213 2.71825,0.0509 0.98564,0.0297 1.5225,0.0467 1.61058,0.0509 l 0.0509,-3.1575 c -0.10294,-0.0148 -0.73741,-0.0742 -1.90341,-0.17825 -1.16604,-0.10394 -2.24612,-0.16335 -3.24026,-0.17824 -2.46786,-0.0721 -4.2291,0.55599 -5.28371,1.88431 -1.05462,1.32839 -1.56814,3.78988 -1.54055,7.38447 l 0,2.29173 -3.20842,0 0,3.46306 3.20842,0 0,22.00061 3.76862,0 z"
       style="line-height:125%;fill:#000000;font-family:TitilliumText22L Rg;-inkscape-font-specification:TitilliumText22L Rg"
       id="path3193" /><path
       d="m 521.74744,-335.85565 c -0.055,-0.0125 -0.658,-0.10056 -1.80887,-0.26407 -1.15092,-0.16343 -2.51967,-0.3269 -4.10625,-0.49041 -1.58663,-0.16343 -3.061,-0.25145 -4.42314,-0.26406 -3.6254,-0.0191 -6.45823,0.73211 -8.4985,2.25353 -2.04028,1.52149 -3.07792,3.9278 -3.11293,7.21895 -0.001,3.35805 0.90502,5.73253 2.71825,7.12346 1.81321,1.39098 4.53995,2.42862 8.1802,3.11294 2.84449,0.5008 4.87097,1.17983 6.07945,2.03709 1.20845,0.85729 1.79623,2.24931 1.76336,4.17604 -2e-5,2.42118 -0.62388,4.1612 -1.87158,5.22006 -1.24774,1.05887 -3.11931,1.57663 -5.61474,1.55328 -1.26659,-0.0107 -2.7001,-0.0855 -4.30053,-0.22446 -1.60045,-0.13894 -3,-0.27789 -4.19868,-0.41685 -1.19868,-0.13894 -1.82867,-0.21376 -1.88997,-0.22445 l -0.40741,3.56491 c 0.0622,0.0132 0.71297,0.10563 1.95221,0.27727 1.23923,0.17165 2.69348,0.34329 4.36278,0.51493 1.66927,0.17165 3.18011,0.26407 4.53253,0.27728 3.57232,0.0318 6.35847,-0.79574 8.35845,-2.48271 1.99994,-1.68697 3.01636,-4.42431 3.04928,-8.21204 0.0169,-3.06517 -0.79365,-5.26141 -2.43179,-6.58872 -1.63818,-1.32728 -4.20576,-2.33946 -7.70276,-3.03655 -3.07899,-0.59413 -5.29857,-1.3156 -6.65875,-2.16441 -1.36019,-0.84876 -2.02649,-2.38507 -1.9989,-4.60892 0.008,-1.97129 0.6663,-3.4015 1.97344,-4.29063 1.30713,-0.88908 3.21266,-1.3262 5.71659,-1.31138 1.05312,0.0101 2.35333,0.0805 3.90066,0.21125 1.54729,0.13081 2.9305,0.26159 4.14964,0.39233 1.21909,0.13081 1.86291,0.20123 1.93146,0.21126 z"
       style="line-height:125%;fill:#000000;font-family:TitilliumText22L Rg;-inkscape-font-specification:TitilliumText22L Rg"
       id="path3195" /><path
       d="m 538.20766,-326.84151 c -3.97659,-0.0106 -6.8073,1.04192 -8.49213,3.1575 -1.68485,2.11563 -2.50393,5.358 -2.45725,9.72712 -0.0817,4.64395 0.66736,8.07517 2.24717,10.29369 1.5798,2.21852 4.48054,3.31983 8.70221,3.30391 4.2174,-0.0117 7.10116,-1.15965 8.65128,-3.44396 1.55008,-2.2843 2.28216,-5.63489 2.19625,-10.05178 0.0286,-4.35109 -0.81805,-7.60407 -2.54001,-9.75896 -1.722,-2.15484 -4.49117,-3.23067 -8.30752,-3.22752 z m 0,23.07009 c -2.92197,0.0212 -4.84447,-0.78513 -5.76752,-2.41905 -0.92307,-1.63391 -1.34322,-4.22272 -1.26045,-7.76642 -0.0446,-3.445 0.45197,-5.88739 1.48962,-7.32717 1.03764,-1.43974 2.88375,-2.13787 5.53835,-2.09439 2.42752,-0.0265 4.193,0.71407 5.29644,2.22171 1.10341,1.50768 1.64664,3.94158 1.62968,7.30171 0.087,3.36121 -0.31619,5.88211 -1.20952,7.56271 -0.89337,1.6806 -2.7989,2.5209 -5.7166,2.5209 z"
       style="line-height:125%;fill:#000000;font-family:TitilliumText22L Rg;-inkscape-font-specification:TitilliumText22L Rg"
       id="path3197" /><path
       d="m 571.78664,-326.33223 0,20.6765 c -0.0807,0.0785 -0.82335,0.39257 -2.22807,0.94215 -1.40477,0.5496 -2.98776,0.86365 -4.74898,0.94216 -2.31933,0.0509 -3.81744,-0.62386 -4.49434,-2.02436 -0.67692,-1.4005 -0.97824,-3.83228 -0.90396,-7.29534 l 0,-13.24111 -3.76862,0 0,13.29203 c -0.087,4.65031 0.45622,7.94149 1.62967,9.87354 1.17345,1.93206 3.49913,2.86785 6.97705,2.80737 1.87369,-0.0891 3.57551,-0.44561 5.10547,-1.06947 1.52992,-0.62386 2.34051,-0.98035 2.43178,-1.06948 l 0,1.62968 3.76862,0 0,-25.46367 z"
       style="line-height:125%;fill:#000000;font-family:TitilliumText22L Rg;-inkscape-font-specification:TitilliumText22L Rg"
       id="path3199" /><path
       d="m 596.87349,-322.86917 0,-3.46306 -8.04652,0 0,-7.79189 -3.81955,0 0,7.79189 -3.61584,0 0,3.46306 3.61584,0 0,13.24111 c -0.0329,3.59674 0.49123,6.06672 1.57238,7.40992 1.08114,1.34321 2.91664,1.9798 5.50652,1.90978 0.99413,-0.0233 2.07422,-0.11671 3.24025,-0.2801 1.16601,-0.16339 1.80048,-0.25676 1.90341,-0.2801 l -0.20371,-3.31028 c -0.0997,0.0106 -0.67692,0.053 -1.73153,0.12732 -1.05463,0.0743 -1.9883,0.11671 -2.801,0.12732 -1.62332,0.052 -2.6546,-0.43394 -3.09384,-1.4578 -0.43925,-1.02384 -0.63023,-2.89754 -0.57293,-5.6211 l 0,-11.86607 z"
       style="line-height:125%;fill:#000000;font-family:TitilliumText22L Rg;-inkscape-font-specification:TitilliumText22L Rg"
       id="path3201" /><path
       d="m 606.76796,-300.86856 0,-20.98207 c 0.0902,-0.0615 0.87743,-0.30766 2.36176,-0.73844 1.4843,-0.43074 3.12459,-0.67689 4.92085,-0.73845 2.22805,-0.036 3.69221,0.65996 4.39248,2.08802 0.70023,1.42811 1.01853,3.80471 0.95489,7.12983 l 0,13.24111 3.81955,0 0,-13.29204 c 0.0806,-4.56116 -0.47534,-7.82687 -1.66787,-9.79715 -1.19257,-1.97022 -3.50552,-2.93148 -6.93885,-2.88376 -1.88645,0.0722 -3.6392,0.36076 -5.25825,0.86577 -1.61907,0.50505 -2.48059,0.79364 -2.58456,0.86576 l 0,-12.93554 -3.81955,0 0,37.17696 z"
       style="line-height:125%;fill:#000000;font-family:TitilliumText22L Rg;-inkscape-font-specification:TitilliumText22L Rg"
       id="path3203" /><path
       d="m 649.31573,-318.54035 c 0.002,-2.86358 -0.6642,-4.96645 -1.9989,-6.30863 -1.33474,-1.34212 -3.35061,-2.00629 -6.04762,-1.99253 -1.35839,0.0126 -2.80636,0.10063 -4.34391,0.26407 -1.53758,0.1635 -2.85729,0.32697 -3.95913,0.49041 -1.10186,0.1635 -1.67841,0.25152 -1.72965,0.26407 l 0.15279,3.31028 c 0.0512,-0.008 0.61646,-0.0654 1.69569,-0.17165 1.07921,-0.10623 2.36497,-0.21249 3.85727,-0.31877 1.49229,-0.10623 2.88367,-0.16344 4.17416,-0.17164 1.41003,-0.007 2.49861,0.36394 3.26571,1.11404 0.76708,0.75014 1.1554,1.92359 1.16497,3.52035 l 0,2.08802 -8.04652,0.76391 c -2.61746,0.20903 -4.56331,0.9114 -5.83755,2.10712 -1.27425,1.19574 -1.90872,3.00578 -1.90341,5.43013 0.0117,2.50817 0.61219,4.43068 1.80156,5.76752 1.18936,1.33684 2.89754,2.01163 5.12456,2.02436 2.50922,-0.0806 4.68424,-0.40317 6.52507,-0.96762 1.84079,-0.56444 2.80629,-0.88698 2.89649,-0.96762 0.63869,0.68222 1.42382,1.17664 2.35539,1.48326 0.93152,0.30663 2.14953,0.45729 3.65404,0.45198 l 0.15278,-3.31027 c -0.82972,-0.0849 -1.51299,-0.29708 -2.04983,-0.6366 -0.53688,-0.33951 -0.8382,-0.9082 -0.90396,-1.70606 z m -3.76862,5.19459 0,8.14837 c -0.104,0.0637 -1.00371,0.3183 -2.69915,0.76392 -1.69547,0.44561 -3.56281,0.70025 -5.60201,0.76391 -1.1533,-0.006 -2.04241,-0.40106 -2.66732,-1.18407 -0.62493,-0.783 -0.9411,-1.91613 -0.94852,-3.3994 -0.0117,-1.30394 0.32996,-2.33734 1.02491,-3.1002 0.69494,-0.76284 1.81322,-1.2233 3.35484,-1.3814 z"
       style="line-height:125%;fill:#000000;font-family:TitilliumText22L Rg;-inkscape-font-specification:TitilliumText22L Rg"
       id="path3205" /><path
       d="m 662.07259,-300.86856 0,-20.57465 c 0.0711,-0.0785 0.78194,-0.39254 2.13258,-0.94216 1.35062,-0.54956 2.91452,-0.86362 4.69168,-0.94215 2.25034,-0.0509 3.72086,0.62388 4.41158,2.02436 0.69068,1.40052 1.00261,3.8323 0.93579,7.29534 l 0,13.13926 3.81955,0 0,-13.24111 c -2e-5,-1.56918 -0.0509,-3.02698 -0.15278,-4.37339 -0.10188,-1.34637 -0.25466,-2.33309 -0.45834,-2.96015 0.12517,-0.10077 0.89332,-0.42119 2.30446,-0.96125 1.41108,-0.54002 3.01954,-0.84771 4.82536,-0.92306 2.33945,-0.0541 3.83543,0.70346 4.48798,2.27263 0.65247,1.56922 0.93893,4.27473 0.8594,8.11655 l 0,12.06978 3.81955,0 0,-13.24111 c 0.0742,-4.65241 -0.49446,-7.95207 -1.70607,-9.899 -1.21168,-1.94689 -3.5119,-2.89117 -6.90066,-2.83284 -1.82917,0.0605 -3.62011,0.37243 -5.37283,0.93579 -1.75277,0.56341 -3.03444,1.01539 -3.84501,1.35594 -0.50718,-0.6111 -1.14801,-1.09491 -1.92251,-1.45143 -0.77454,-0.35646 -1.69548,-0.58564 -2.76281,-0.68752 -0.40956,-0.0488 -0.85093,-0.0657 -1.32411,-0.0509 -0.47322,0.0149 -0.96551,0.0488 -1.47689,0.10185 -1.71351,0.17403 -3.18828,0.53901 -4.42432,1.09494 -1.23606,0.55598 -1.88326,0.87003 -1.9416,0.94216 l 0,-1.73153 -3.81955,0 0,25.46367 z"
       style="line-height:125%;fill:#000000;font-family:TitilliumText22L Rg;-inkscape-font-specification:TitilliumText22L Rg"
       id="path3207" /><path
       d="m 702.21822,-289.56269 3.81955,0 0,-11.3568 c 0.39998,0.0902 1.14055,0.20265 2.2217,0.3374 1.08114,0.13474 2.24185,0.20901 3.48216,0.2228 3.91608,0.0594 6.75316,-0.95064 8.51123,-3.03018 1.75803,-2.07952 2.62167,-5.58502 2.59093,-10.51649 0.0169,-4.52721 -0.71725,-7.82263 -2.20261,-9.88627 -1.4854,-2.0636 -3.82381,-3.08002 -7.01524,-3.04928 -1.96496,0.0955 -3.70073,0.47747 -5.20732,1.14587 -1.50661,0.66844 -2.30023,1.0504 -2.38085,1.14586 l 0,-1.78245 -3.81955,0 z m 10.89845,-33.76483 c 1.84822,-0.0414 3.28267,0.65253 4.30336,2.08166 1.02065,1.42916 1.53841,3.84184 1.55328,7.23804 0.0403,3.67951 -0.49868,6.315 -1.61694,7.90647 -1.1183,1.59149 -3.05778,2.36813 -5.81845,2.32993 -1.14588,-0.0138 -2.25355,-0.0881 -3.32301,-0.22281 -1.06948,-0.13474 -1.7952,-0.2472 -2.17714,-0.33739 l 0,-17.00973 c 0.0849,-0.0827 0.84453,-0.41377 2.279,-0.99309 1.43444,-0.57927 3.0344,-0.9103 4.7999,-0.99308 z"
       style="line-height:125%;fill:#000000;font-family:TitilliumText22L Rg;-inkscape-font-specification:TitilliumText22L Rg"
       id="path3209" /><path
       d="m 742.2968,-322.86917 0,-3.46306 -8.04652,0 0,-7.79189 -3.81955,0 0,7.79189 -3.61584,0 0,3.46306 3.61584,0 0,13.24111 c -0.0329,3.59674 0.49123,6.06672 1.57238,7.40992 1.08114,1.34321 2.91664,1.9798 5.50652,1.90978 0.99413,-0.0233 2.07422,-0.11671 3.24025,-0.2801 1.16601,-0.16339 1.80048,-0.25676 1.90341,-0.2801 l -0.20371,-3.31028 c -0.0997,0.0106 -0.67692,0.053 -1.73153,0.12732 -1.05463,0.0743 -1.9883,0.11671 -2.801,0.12732 -1.62332,0.052 -2.6546,-0.43394 -3.09384,-1.4578 -0.43925,-1.02384 -0.63023,-2.89754 -0.57293,-5.6211 l 0,-11.86607 z"
       style="line-height:125%;fill:#000000;font-family:TitilliumText22L Rg;-inkscape-font-specification:TitilliumText22L Rg"
       id="path3211" /><path
       d="m 757.43676,-326.84151 c -3.97659,-0.0106 -6.8073,1.04192 -8.49214,3.1575 -1.68485,2.11563 -2.50393,5.358 -2.45724,9.72712 -0.0817,4.64395 0.66735,8.07517 2.24717,10.29369 1.5798,2.21852 4.48053,3.31983 8.70221,3.30391 4.2174,-0.0117 7.10116,-1.15965 8.65128,-3.44396 1.55008,-2.2843 2.28216,-5.63489 2.19624,-10.05178 0.0286,-4.35109 -0.81804,-7.60407 -2.54,-9.75896 -1.722,-2.15484 -4.49117,-3.23067 -8.30752,-3.22752 z m 0,23.07009 c -2.92197,0.0212 -4.84448,-0.78513 -5.76753,-2.41905 -0.92306,-1.63391 -1.34321,-4.22272 -1.26045,-7.76642 -0.0446,-3.445 0.45198,-5.88739 1.48963,-7.32717 1.03763,-1.43974 2.88375,-2.13787 5.53835,-2.09439 2.42752,-0.0265 4.193,0.71407 5.29644,2.22171 1.10341,1.50768 1.64663,3.94158 1.62968,7.30171 0.087,3.36121 -0.3162,5.88211 -1.20953,7.56271 -0.89337,1.6806 -2.7989,2.5209 -5.71659,2.5209 z"
       style="line-height:125%;fill:#000000;font-family:TitilliumText22L Rg;-inkscape-font-specification:TitilliumText22L Rg"
       id="path3213" /><path
       d="m 779.04781,-300.86856 0,-20.57465 c 0.0934,-0.0785 0.88697,-0.39254 2.38085,-0.94216 1.49386,-0.54956 3.12777,-0.86362 4.90176,-0.94215 2.25245,-0.0371 3.73147,0.66102 4.43704,2.09439 0.70554,1.43341 1.02595,3.82487 0.96126,7.17439 l 0,13.19018 3.76862,0 0,-13.24111 c 0.0796,-4.58557 -0.47429,-7.86613 -1.66151,-9.84171 -1.18726,-1.97553 -3.48536,-2.93891 -6.89428,-2.89013 -1.91086,0.0913 -3.67846,0.45625 -5.30281,1.09494 -1.62438,0.63874 -2.48803,1.00372 -2.59093,1.09494 l 0,-1.6806 -3.81955,0 0,25.46367 z"
       style="line-height:125%;fill:#000000;font-family:TitilliumText22L Rg;-inkscape-font-specification:TitilliumText22L Rg"
       id="path3215" /></g><g
     transform="scale(1,-1)"
     style="font-size:72.95999908px;font-style:normal;font-variant:normal;font-weight:normal;font-stretch:normal;text-align:start;line-height:125%;writing-mode:lr-tb;text-anchor:start;fill:#000000;fill-opacity:1;stroke:none;font-family:TitilliumText22L Rg;-inkscape-font-specification:TitilliumText22L Rg"
     id="text3166"><path
       d="m 212.07294,-371.02823 7.02231,0 4.55994,-15.95979 26.44766,0 4.83354,15.86859 6.93111,0 -17.05418,-63.38318 -15.4126,0 z m 22.61731,-56.99926 4.55994,0 9.39348,34.29075 -23.3469,0 z"
       style="font-size:91.19999695px;fill:#000000"
       id="path3218" /><path
       d="m 294.65561,-410.42612 0,-6.20152 -14.40941,0 0,-13.95342 -6.83992,0 0,13.95342 -6.47511,0 0,6.20152 6.47511,0 0,23.71169 c -0.0589,6.44093 0.87968,10.86407 2.81577,13.26943 1.93606,2.40537 5.22301,3.54535 9.86087,3.41996 1.78025,-0.0418 3.71443,-0.209 5.80253,-0.5016 2.08804,-0.29259 3.22422,-0.45979 3.40855,-0.50159 l -0.36479,-5.92792 c -0.17863,0.019 -1.21222,0.095 -3.10076,0.22799 -1.88861,0.13301 -3.56058,0.20901 -5.01594,0.228 -2.90698,0.0931 -4.75376,-0.77708 -5.54033,-2.61057 -0.7866,-1.83346 -1.1286,-5.18882 -1.02598,-10.06606 l 0,-21.24933 z"
       style="font-size:91.19999695px;fill:#000000"
       id="path3220" /><path
       d="m 312.37426,-371.02823 0,-37.57391 c 0.16148,-0.11017 1.57126,-0.55096 4.22935,-1.32239 2.65804,-0.77135 5.5954,-1.21214 8.81208,-1.32238 3.98992,-0.0646 6.61188,1.18182 7.8659,3.73915 1.25395,2.5574 1.82394,6.81334 1.70998,12.76784 l 0,23.71169 6.83991,0 0,-23.80289 c 0.14436,-8.16797 -0.85123,-14.01608 -2.98676,-17.54438 -2.13561,-3.52821 -6.27755,-5.24958 -12.42584,-5.16413 -3.37818,0.12925 -6.51694,0.64604 -9.41628,1.55038 -2.89938,0.90443 -4.44216,1.42123 -4.62834,1.55038 l 0,-23.1645 -6.83991,0 0,66.57514 z"
       style="font-size:91.19999695px;fill:#000000"
       id="path3222" /><path
       d="m 372.60747,-376.31776 c -4.44597,-0.01 -7.56952,-1.24448 -9.37068,-3.70495 -1.80119,-2.46046 -2.69038,-6.08941 -2.66757,-10.88686 l 30.18681,0 0.3648,-5.28953 c -0.0114,-7.43268 -1.56182,-12.859 -4.65114,-16.279 -3.0894,-3.41991 -7.64933,-5.10708 -13.67983,-5.06153 -5.86524,-0.0836 -10.50497,1.74802 -13.91922,5.49473 -3.41426,3.74679 -5.15844,9.9103 -5.23253,18.49056 -0.0988,7.75952 1.21598,13.60383 3.94435,17.53297 2.72835,3.92915 7.46309,5.89753 14.20422,5.90513 3.96902,-0.0608 7.84116,-0.304 11.61645,-0.72959 3.77521,-0.4256 5.80058,-0.66879 6.07612,-0.72959 l -0.1824,-5.56313 c -0.26793,0.0342 -2.19451,0.171 -5.77972,0.41039 -3.58529,0.23941 -7.22184,0.3762 -10.90966,0.4104 z m -12.03825,-20.15494 c 0.019,-5.2914 1.07538,-9.11795 3.16916,-11.47965 2.09376,-2.36163 5.11092,-3.52062 9.05148,-3.47696 3.95003,-0.0608 6.85698,1.06403 8.72089,3.37436 1.86384,2.3104 2.78723,6.17115 2.77017,11.58225 z"
       style="font-size:91.19999695px;fill:#000000"
       id="path3224" /><path
       d="m 402.77778,-371.02823 6.74871,0 0,-45.59941 -6.74871,0 z m 0,-55.90488 6.74871,0 0,-7.93429 -6.74871,0 z"
       style="font-size:91.19999695px;fill:#000000"
       id="path3226" /><path
       d="m 454.88251,-415.80685 c -0.26033,-0.0722 -2.15651,-0.36095 -5.68853,-0.86639 -3.53208,-0.50535 -7.13823,-0.79415 -10.81845,-0.86639 -4.31487,-0.0722 -8.08821,0.89304 -11.32006,2.89557 -3.23186,2.00261 -4.93044,5.47576 -5.09573,10.41946 -0.0266,4.33767 1.25777,7.38143 3.85315,9.13128 2.59535,1.7499 6.6613,2.99248 12.19784,3.72775 4.46872,0.64601 7.52387,1.4516 9.16548,2.41677 1.64155,0.96521 2.41674,2.59158 2.32557,4.87914 -0.0114,3.03997 -0.99182,5.12234 -2.94116,6.24712 -1.9494,1.12479 -4.79936,1.65678 -8.54989,1.59598 -1.65004,-0.0191 -3.63953,-0.15312 -5.96846,-0.40195 -2.32896,-0.24882 -4.39951,-0.49765 -6.21165,-0.74648 -1.81216,-0.24882 -2.76806,-0.3828 -2.8677,-0.40195 l -0.36479,5.92792 c 0.0901,0.0214 1.04484,0.17114 2.86432,0.44924 1.81946,0.2781 3.96319,0.5562 6.4312,0.8343 2.46798,0.2781 4.7198,0.42784 6.75547,0.44924 5.5688,0.0741 9.91214,-0.96329 13.03003,-3.11216 3.11783,-2.14887 4.7024,-5.85382 4.75374,-11.11486 0.0684,-4.30152 -1.16282,-7.37188 -3.69355,-9.21108 -2.5308,-1.83915 -6.77154,-3.17673 -12.72224,-4.01275 -4.41366,-0.61936 -7.39662,-1.40975 -8.94888,-2.37117 -1.55229,-0.96135 -2.27808,-2.48133 -2.17737,-4.55994 0.057,-2.63903 0.99177,-4.4516 2.80436,-5.43773 1.81256,-0.98605 4.16093,-1.45344 7.04511,-1.40218 2.0345,0.0181 4.27844,0.14416 6.73182,0.37831 2.45333,0.23422 4.58243,0.46841 6.3873,0.70256 1.8048,0.23423 2.75169,0.36034 2.84067,0.37831 z"
       style="font-size:91.19999695px;fill:#000000"
       id="path3228" /><path
       d="m 491.66186,-410.42612 0,-6.20152 -14.40941,0 0,-13.95342 -6.83991,0 0,13.95342 -6.47512,0 0,6.20152 6.47512,0 0,23.71169 c -0.0589,6.44093 0.87968,10.86407 2.81576,13.26943 1.93606,2.40537 5.22302,3.54535 9.86087,3.41996 1.78026,-0.0418 3.71443,-0.209 5.80253,-0.5016 2.08804,-0.29259 3.22423,-0.45979 3.40855,-0.50159 l -0.36479,-5.92792 c -0.17863,0.019 -1.21221,0.095 -3.10076,0.22799 -1.8886,0.13301 -3.56058,0.20901 -5.01594,0.228 -2.90698,0.0931 -4.75375,-0.77708 -5.54033,-2.61057 -0.7866,-1.83346 -1.1286,-5.18882 -1.02598,-10.06606 l 0,-21.24933 z"
       style="font-size:91.19999695px;fill:#000000"
       id="path3230" /><path
       d="m 559.30072,-433.68182 c -0.0986,-0.0224 -1.17831,-0.18008 -3.23925,-0.47288 -2.06102,-0.29268 -4.51213,-0.58542 -7.35333,-0.87822 -2.84126,-0.29267 -5.48152,-0.4503 -7.92078,-0.47288 -6.49224,-0.0341 -11.56517,1.31105 -15.21881,4.03555 -3.65366,2.72462 -5.51183,7.03376 -5.57452,12.92743 -0.002,6.01347 1.62067,10.26561 4.86773,12.75644 3.24705,2.4909 8.12998,4.34907 14.64881,5.57453 5.09381,0.89681 8.72276,2.1128 10.88686,3.64795 2.16404,1.53521 3.21662,4.02797 3.15776,7.4783 -4e-5,4.33576 -1.11722,7.45172 -3.35155,9.34788 -2.23441,1.89618 -5.58596,2.82337 -10.05467,2.78157 -2.26818,-0.0191 -4.83525,-0.15312 -7.70124,-0.40195 -2.86602,-0.24882 -5.3723,-0.49765 -7.51884,-0.74648 -2.14655,-0.24882 -3.27471,-0.3828 -3.38448,-0.40195 l -0.72959,6.38392 c 0.11146,0.0236 1.27677,0.18915 3.49595,0.49652 2.21916,0.30737 4.82339,0.61475 7.8127,0.92212 2.98927,0.30737 5.69484,0.47288 8.11669,0.49653 6.39719,0.057 11.38652,-1.42498 14.96801,-4.44594 3.58141,-3.02096 5.40159,-7.92289 5.46053,-14.70581 0.0304,-5.48901 -1.42122,-9.42195 -4.35474,-11.79885 -2.9336,-2.37684 -7.53154,-4.18941 -13.79383,-5.43773 -5.51375,-1.06395 -9.48849,-2.35593 -11.92424,-3.87595 -2.43578,-1.51994 -3.62897,-4.2711 -3.57955,-8.25349 0.0152,-3.53011 1.19317,-6.09127 3.53395,-7.68351 2.34075,-1.59212 5.75311,-2.37491 10.23707,-2.34836 1.88587,0.0181 4.21426,0.14417 6.98515,0.3783 2.77083,0.23425 5.24783,0.46844 7.43101,0.70257 2.18311,0.23424 3.33604,0.36035 3.45881,0.37831 z"
       style="font-size:91.19999695px;fill:#000000"
       id="path3232" /><path
       d="m 588.77711,-417.53963 c -7.12113,-0.019 -12.19026,1.86582 -15.20741,5.65433 -3.01716,3.78859 -4.48394,9.5949 -4.40034,17.41897 -0.1463,8.31621 1.19508,14.46073 4.02415,18.43357 2.82905,3.97284 8.02358,5.94502 15.5836,5.91652 7.55237,-0.0209 12.7165,-2.07667 15.4924,-6.16732 2.77582,-4.09064 4.0868,-10.09076 3.93295,-18.00037 0.0513,-7.79177 -1.46492,-13.61709 -4.54854,-17.47598 -3.0837,-3.8588 -8.04263,-5.78537 -14.87681,-5.77972 z m 0,41.31307 c -5.23255,0.038 -8.67531,-1.40598 -10.32827,-4.33195 -1.65299,-2.92595 -2.40538,-7.56188 -2.25717,-13.90782 -0.0798,-6.16919 0.80938,-10.54293 2.66757,-13.12123 1.85816,-2.57823 5.16411,-3.82841 9.91787,-3.75055 4.34711,-0.0475 7.50867,1.27873 9.48468,3.97855 1.97594,2.6999 2.94872,7.05844 2.91836,13.07563 0.15576,6.01914 -0.56623,10.53348 -2.16597,13.54303 -1.59982,3.00956 -5.01217,4.51434 -10.23707,4.51434 z"
       style="font-size:91.19999695px;fill:#000000"
       id="path3234" /><path
       d="m 636.14127,-417.53963 c -6.73163,-0.0779 -11.57656,1.67393 -14.53482,5.25534 -2.95827,3.58149 -4.40604,9.46 -4.34334,17.63557 -0.1292,8.8425 1.17798,15.16561 3.92155,18.96935 2.74355,3.80375 7.69869,5.65813 14.86541,5.56313 2.32364,-0.0532 4.9494,-0.266 7.8773,-0.63839 2.92782,-0.3724 4.5276,-0.5852 4.79934,-0.63839 l -0.2736,-5.92793 c -0.23563,0.0342 -1.61121,0.17101 -4.12675,0.4104 -2.5156,0.2394 -4.75756,0.3762 -6.72591,0.41039 -5.46245,0.076 -9.0838,-1.28437 -10.86406,-4.08115 -1.78029,-2.79675 -2.59728,-7.48588 -2.45097,-14.06741 -0.10071,-5.9507 0.80748,-10.19144 2.72457,-12.72224 1.91705,-2.53073 5.44721,-3.76191 10.59046,-3.69355 1.96455,0.0342 4.19131,0.17104 6.68031,0.41039 2.48894,0.23944 3.84932,0.37624 4.08115,0.4104 l 0.1824,-5.92793 c -0.25463,-0.0569 -1.79741,-0.28495 -4.62834,-0.68399 -2.83099,-0.39895 -5.42256,-0.62694 -7.7747,-0.68399 z"
       style="font-size:91.19999695px;fill:#000000"
       id="path3236" /><path
       d="m 659.99027,-371.02823 6.74871,0 0,-45.59941 -6.74871,0 z m 0,-55.90488 6.74871,0 0,-7.93429 -6.74871,0 z"
       style="font-size:91.19999695px;fill:#000000"
       id="path3238" /><path
       d="m 697.68559,-376.31776 c -4.44596,-0.01 -7.56952,-1.24448 -9.37068,-3.70495 -1.80119,-2.46046 -2.69037,-6.08941 -2.66756,-10.88686 l 30.18681,0 0.36479,-5.28953 c -0.0114,-7.43268 -1.56182,-12.859 -4.65114,-16.279 -3.08939,-3.41991 -7.64933,-5.10708 -13.67982,-5.06153 -5.86524,-0.0836 -10.50498,1.74802 -13.91922,5.49473 -3.41427,3.74679 -5.15844,9.9103 -5.23253,18.49056 -0.0988,7.75952 1.21598,13.60383 3.94435,17.53297 2.72835,3.92915 7.46308,5.89753 14.20421,5.90513 3.96902,-0.0608 7.84117,-0.304 11.61645,-0.72959 3.77521,-0.4256 5.80059,-0.66879 6.07612,-0.72959 l -0.18239,-5.56313 c -0.26794,0.0342 -2.19451,0.171 -5.77973,0.41039 -3.58529,0.23941 -7.22183,0.3762 -10.90966,0.4104 z m -12.03824,-20.15494 c 0.019,-5.2914 1.07537,-9.11795 3.16916,-11.47965 2.09375,-2.36163 5.11091,-3.52062 9.05148,-3.47696 3.95002,-0.0608 6.85698,1.06403 8.72089,3.37436 1.86384,2.3104 2.78722,6.17115 2.77016,11.58225 z"
       style="font-size:91.19999695px;fill:#000000"
       id="path3240" /><path
       d="m 750.65561,-410.42612 0,-6.20152 -14.40942,0 0,-13.95342 -6.83991,0 0,13.95342 -6.47512,0 0,6.20152 6.47512,0 0,23.71169 c -0.0589,6.44093 0.87968,10.86407 2.81576,13.26943 1.93607,2.40537 5.22302,3.54535 9.86088,3.41996 1.78025,-0.0418 3.71442,-0.209 5.80252,-0.5016 2.08805,-0.29259 3.22423,-0.45979 3.40856,-0.50159 l -0.3648,-5.92792 c -0.17862,0.019 -1.21221,0.095 -3.10076,0.22799 -1.8886,0.13301 -3.56058,0.20901 -5.01593,0.228 -2.90699,0.0931 -4.75376,-0.77708 -5.54033,-2.61057 -0.78661,-1.83346 -1.1286,-5.18882 -1.02599,-10.06606 l 0,-21.24933 z"
       style="font-size:91.19999695px;fill:#000000"
       id="path3242" /><path
       d="m 755.78882,-416.62764 12.95024,45.59941 6.65751,0 -5.83672,20.24614 6.83991,0 18.96935,-65.84555 -6.83991,0 -11.39985,39.0331 -3.10076,0 -11.39985,-39.0331 z"
       style="font-size:91.19999695px;fill:#000000"
       id="path3244" /></g></g></g></svg>