<?xml version="1.0" encoding="UTF-8" standalone="no"?>
<!-- Created with Inkscape (http://www.inkscape.org/) -->

<svg
   xmlns:dc="http://purl.org/dc/elements/1.1/"
   xmlns:cc="http://creativecommons.org/ns#"
   xmlns:rdf="http://www.w3.org/1999/02/22-rdf-syntax-ns#"
   xmlns:svg="http://www.w3.org/2000/svg"
   xmlns="http://www.w3.org/2000/svg"
   xmlns:sodipodi="http://sodipodi.sourceforge.net/DTD/sodipodi-0.dtd"
   xmlns:inkscape="http://www.inkscape.org/namespaces/inkscape"
   id="svg2"
   version="1.1"
   inkscape:version="0.48.1 "
   width="729.92426"
   height="682.20245"
   xml:space="preserve"
   sodipodi:docname="LogoBIG.svg"
   inkscape:export-filename="C:\Users\graingert\My Dropbox\Atheist\LogoBIG.png"
   inkscape:export-xdpi="300"
   inkscape:export-ydpi="300"><metadata
     id="metadata8"><rdf:RDF><cc:Work
         rdf:about=""><dc:format>image/svg+xml</dc:format><dc:type
           rdf:resource="http://purl.org/dc/dcmitype/StillImage" /><dc:title /></cc:Work></rdf:RDF></metadata><defs
     id="defs6"><inkscape:perspective
       sodipodi:type="inkscape:persp3d"
       inkscape:vp_x="0 : 362.19434 : 1"
       inkscape:vp_y="0 : 1000 : 0"
       inkscape:vp_z="717.73926 : 362.19434 : 1"
       inkscape:persp3d-origin="358.86963 : 241.46289 : 1"
       id="perspective2859" /><clipPath
       clipPathUnits="userSpaceOnUse"
       id="clipPath18"><path
         d="m 58.489,352.584 497.513,0 0,417.518 -497.513,0 0,-417.518 z"
         id="path20"
         inkscape:connector-curvature="0" /></clipPath><clipPath
       clipPathUnits="userSpaceOnUse"
       id="clipPath26"><path
         d="m 73.6943,753.987 467.7137,0 0,-379.993 -467.7137,0 0,379.993 z"
         id="path28"
         inkscape:connector-curvature="0" /></clipPath><clipPath
       clipPathUnits="userSpaceOnUse"
       id="clipPath82"><path
         d="M 0,792 612,792 612,0 0,0 0,792 z"
         id="path84"
         inkscape:connector-curvature="0" /></clipPath></defs><sodipodi:namedview
     pagecolor="#ffffff"
     bordercolor="#666666"
     borderopacity="1"
     objecttolerance="10"
     gridtolerance="10"
     guidetolerance="10"
     inkscape:pageopacity="0"
     inkscape:pageshadow="2"
     inkscape:window-width="1280"
     inkscape:window-height="1002"
     id="namedview4"
     showgrid="false"
     inkscape:zoom="0.65344538"
     inkscape:cx="409.50524"
     inkscape:cy="344.3199"
     inkscape:window-x="1272"
     inkscape:window-y="-8"
     inkscape:window-maximized="1"
     inkscape:current-layer="g12"
     showguides="false"
     fit-margin-top="0"
     fit-margin-left="0"
     fit-margin-right="0"
     fit-margin-bottom="0" /><g
     id="g12"
     inkscape:groupmode="layer"
     inkscape:label="LogoBIG"
     transform="matrix(1.25,0,0,-1.25,-24.481485,942.48375)"><text
   xml:space="preserve"
   style="font-size:50.92800139999999900px;font-style:normal;font-variant:normal;font-weight:normal;font-stretch:normal;text-align:start;line-height:125%;writing-mode:lr-tb;text-anchor:start;fill:none;fill-opacity:1;stroke:none;font-family:TitilliumText22L Rg;-inkscape-font-specification:TitilliumText22L Rg"
   x="15.612855"
   y="-219.53088"
   id="text2930"
   transform="scale(1,-1)"
   sodipodi:linespacing="125%"><tspan
     sodipodi:role="line"
     id="tspan2932"
     x="15.612855"
     y="-219.53088"
     style="font-size:50.92800139999999900px;font-style:normal;font-variant:normal;font-weight:normal;font-stretch:normal;text-align:start;line-height:125%;writing-mode:lr-tb;text-anchor:start;font-family:TitilliumText22L Rg;-inkscape-font-specification:TitilliumText22L Rg;fill:none">University of Southampton</tspan></text>






<text
   xml:space="preserve"
   style="font-size:72.95999908000000300px;font-style:normal;font-variant:normal;font-weight:normal;font-stretch:normal;text-align:start;line-height:125%;writing-mode:lr-tb;text-anchor:start;fill:none;fill-opacity:1;stroke:none;font-family:TitilliumText22L Rg;-inkscape-font-specification:TitilliumText22L Rg"
   x="17.336033"
   y="-289.69055"
   id="text2926"
   transform="scale(1,-1)"
   sodipodi:linespacing="125%"><tspan
     sodipodi:role="line"
     id="tspan2928"
     x="17.336033"
     y="-289.69055"
     style="font-size:91.19999694999999900px;fill:none">Atheist Society</tspan></text>






<g
   id="g14"
   transform="translate(4.0779127,0)"
   inkscape:export-filename="C:\Users\graingert\My Dropbox\Atheist\favicon.png"
   inkscape:export-xdpi="4.547452"
   inkscape:export-ydpi="4.547452"><g
     id="g16"
     clip-path="url(#clipPath18)"><g
       id="g22"><g
         id="g24" /><g
         id="g30"><g
           clip-path="url(#clipPath26)"
           id="g32"><g
             transform="translate(541.2666,589.061)"
             id="g34"><path
               d="m 0,0 c 1.656,-11.515 -11.635,-24.055 -18.946,-30.875 -10.239,-9.55 -19.866,-15.087 -28.771,-21.051 -60.291,-40.377 -131.36,-68.515 -205.685,-93.588 l -1.319,23.416 c 64.283,22.111 132.798,47.934 186.655,83.504 7.592,5.011 15.95,10.308 21.753,16.139 3.431,3.446 10.35,11.207 9.824,16.842 -1.439,15.395 -42.924,9.472 -58.944,7.017 -33.184,-5.095 -63.469,-13.438 -93.328,-22.455 -9.641,-2.912 -17.689,-5.074 -17.689,-5.074 l -12.505,4.653 C -169.8,-7.515 -113.376,12.631 -54.032,15.438 -34.174,16.378 -2.189,15.192 0,0"
               style="fill:#1a3c9c;fill-opacity:1;fill-rule:nonzero;stroke:none"
               id="path36"
               inkscape:connector-curvature="0" /></g><g
             transform="translate(530.0391,447.3154)"
             id="g38"><path
               d="m 0,0 c 4.399,-4.933 11.887,-14.209 11.228,-22.455 -1.053,-13.213 -23.038,-16.792 -38.595,-16.841 -66.424,-0.217 -126.645,21.95 -180.34,37.191 l 11.93,4.912 c 39.955,-11.256 79.588,-25.507 128.413,-30.174 12.968,-1.242 40.657,-2.561 42.102,9.122 0.934,7.572 -8.961,15.951 -14.034,20.35 -18.925,16.42 -41.527,27.493 -63.855,39.296 l 23.858,12.631 C -66.186,47.618 -51.042,38.047 -37.19,28.77 -23.634,19.69 -9.768,10.947 0,0"
               style="fill:#1a3c9c;fill-opacity:1;fill-rule:nonzero;stroke:none"
               id="path40"
               inkscape:connector-curvature="0" /></g><g
             transform="translate(405.2744,523.4932)"
             id="g42"><path
               d="m 0,0 c 0,-0.182 -26.805,-12.322 -26.805,-12.322 -29.451,12.89 -60.284,24.048 -91.756,34.91 l 0.828,22.806 C -76.191,32.903 -37.323,16.708 0,0"
               style="fill:#1a3c9c;fill-opacity:1;fill-rule:nonzero;stroke:none"
               id="path44"
               inkscape:connector-curvature="0" /></g><g
             transform="translate(360.2246,509.0659)"
             id="g46"><path
               d="M 0,0 0,-4.912 -8.16,-8.519 -8.42,2.807 C -8.357,2.793 0,0 0,0"
               style="fill:#1a3c9c;fill-opacity:1;fill-rule:nonzero;stroke:none"
               id="path48"
               inkscape:connector-curvature="0" /></g><g
             transform="translate(359.5371,459.4199)"
             id="g50"><path
               d="m 0,0 -0.07,-8.21 c 0,0 -8.497,2.393 -8.533,2.393 l 0.042,2.575 C -8.561,-3.242 0,-0.084 0,0"
               style="fill:#1a3c9c;fill-opacity:1;fill-rule:nonzero;stroke:none"
               id="path52"
               inkscape:connector-curvature="0" /></g><g
             transform="translate(359.5234,553.2739)"
             id="g54"><path
               d="m 0,0 -8.421,3.509 c 0.014,0 0.014,1.964 0.014,1.964 l 7.881,2.541 C -0.513,7.985 0,0 0,0"
               style="fill:#1a3c9c;fill-opacity:1;fill-rule:nonzero;stroke:none"
               id="path56"
               inkscape:connector-curvature="0" /></g><g
             transform="translate(348.9971,426.9658)"
             id="g58"><path
               d="M 0,0 8.421,-2.105 C 7.663,-19.83 5.024,-36.208 3.313,-52.972 c -0.029,0 -7.466,6.708 -7.466,6.708 C -2.386,-31.422 -0.547,-16.062 0,0"
               style="fill:#1a3c9c;fill-opacity:1;fill-rule:nonzero;stroke:none"
               id="path60"
               inkscape:connector-curvature="0" /></g><g
             transform="translate(356.0146,605.2007)"
             id="g62"><path
               d="m 0,0 c 0.337,-3.888 1.691,-17.01 1.691,-17.01 -3.186,-0.961 -5.909,-1.831 -8.372,-2.526 0,0 -0.729,5.775 -0.961,8.35 -3.171,34.981 -6.02,69.014 -16.216,99.602 -2.898,8.694 -8.653,24.518 -17.543,24.56 -5.719,0.027 -11.438,-8.66 -14.034,-14.035 -8.533,-17.648 -13.122,-44.628 -16.14,-68.066 -8.708,-67.687 -11.122,-147.998 -4.21,-220.337 0.646,-6.737 1.867,-20.701 1.867,-20.701 l -19.339,-19.072 c -11.93,101.46 -12.547,244.49 14.665,333.088 5.565,18.118 10.87,35.528 25.262,43.506 13.739,7.614 25.809,-17.199 30.174,-28.068 C -11.662,90.661 -7.354,59.863 -2.807,25.963 -1.782,18.343 -0.729,8.449 0,0"
               style="fill:#1a3c9c;fill-opacity:1;fill-rule:nonzero;stroke:none"
               id="path64"
               inkscape:connector-curvature="0" /></g><g
             transform="translate(247.9512,581.3423)"
             id="g66"><path
               d="m 0,0 -1.403,-22.455 c -17.48,4.281 -36.209,9.831 -56.138,14.035 -19.662,4.147 -41.639,8.975 -62.452,7.718 -8.989,-0.54 -21.381,-2.603 -22.455,-9.823 -1.073,-7.207 7.214,-14.547 11.929,-18.947 13.894,-12.961 55.043,-35.892 55.043,-35.892 l -8.442,-4.814 c -0.14,0 -13.129,7.705 -20.061,11.789 -19.417,11.431 -41.563,24.37 -56.713,40.145 -5.382,5.599 -15.199,15.753 -13.332,26.665 1.747,10.196 19.177,13.879 31.576,14.736 25.718,1.775 51.927,-2.379 75.785,-7.017 C -43.197,11.578 -20.511,5.453 0,0"
               style="fill:#1a3c9c;fill-opacity:1;fill-rule:nonzero;stroke:none"
               id="path68"
               inkscape:connector-curvature="0" /></g><g
             transform="translate(246.3442,454.2412)"
             id="g70"><path
               d="m 0,0 c 0.105,-0.217 1.249,-23.079 1.249,-23.079 -40.812,-9.34 -84.177,-23.143 -134.371,-23.143 -12.238,0 -36.826,2.26 -39.295,14.736 -1.559,7.866 5.69,18.624 11.227,24.56 16.476,17.662 41.162,33.451 61.751,44.91 16.041,8.933 31.815,16.399 47.014,23.858 16.827,8.259 34.454,15.845 51.709,23.058 l -0.07,-9.108 c 0,0 -15.852,-6.807 -19.36,-8.336 -34.118,-14.912 -64.2,-28.911 -94.03,-49.822 -5.691,-3.992 -28.685,-18.083 -26.665,-30.174 1.011,-6.048 11.782,-8.553 18.245,-9.122 22.048,-1.936 44.678,2.807 65.259,7.017 C -37.093,-10.504 -17.206,-5.165 0,0"
               style="fill:#1a3c9c;fill-opacity:1;fill-rule:nonzero;stroke:none"
               id="path72"
               inkscape:connector-curvature="0" /></g><g
             transform="translate(245.3618,482.8574)"
             id="g74"><path
               d="M 0,0 0.196,-9.081 C -18.729,-2.505 -35.43,6.203 -52.846,14.28 l 8.421,4.911 C -29.458,13.108 -15.48,5.571 0,0"
               style="fill:#1a3c9c;fill-opacity:1;fill-rule:nonzero;stroke:none"
               id="path76"
               inkscape:connector-curvature="0" /></g></g></g></g></g></g><g
   transform="scale(1,-1)"
   style="font-size:50.9280014px;font-style:normal;font-variant:normal;font-weight:normal;font-stretch:normal;text-align:start;line-height:125%;writing-mode:lr-tb;text-anchor:start;fill:#000000;fill-opacity:1;stroke:none;font-family:TitilliumText22L Rg;-inkscape-font-specification:TitilliumText22L Rg"
   id="text3035"><path
     d="m 23.506594,-230.22563 0,-24.75069 -3.921406,0 0,24.75069 c 0.02334,4.00736 1.084322,6.87838 3.182958,8.61309 2.098622,1.73471 5.094845,2.58138 8.988678,2.54 4.040215,0.0382 7.125561,-0.81484 9.256045,-2.5591 2.130433,-1.74426 3.20415,-4.60892 3.221154,-8.59399 l 0,-24.75069 -3.870478,0 0,24.75069 c -0.02761,2.73629 -0.800008,4.66092 -2.317195,5.77389 -1.517232,1.11298 -3.613738,1.64984 -6.289526,1.61058 -2.527284,0.0361 -4.52618,-0.50715 -5.996696,-1.62968 -1.470536,-1.12251 -2.221714,-3.04078 -2.253534,-5.75479 z"
     style="line-height:125%;fill:#000000;font-family:TitilliumText22L Rg;-inkscape-font-specification:TitilliumText22L Rg"
     id="path3044" /><path
     d="m 56.488836,-219.53088 0,-20.57465 c 0.09336,-0.0785 0.886977,-0.39255 2.380855,-0.94216 1.493856,-0.54957 3.127773,-0.86362 4.901756,-0.94215 2.252456,-0.0371 3.731469,0.66101 4.437045,2.09438 0.705535,1.43342 1.025952,3.82488 0.961254,7.17439 l 0,13.19019 3.768623,0 0,-13.24111 c 0.07955,-4.58557 -0.474285,-7.86614 -1.661505,-9.84171 -1.187266,-1.97554 -3.48536,-2.93891 -6.894289,-2.89013 -1.910851,0.0913 -3.678452,0.45625 -5.30281,1.09494 -1.62438,0.63873 -2.488022,1.00371 -2.590929,1.09494 l 0,-1.68061 -3.81955,0 0,25.46368 z"
     style="line-height:125%;fill:#000000;font-family:TitilliumText22L Rg;-inkscape-font-specification:TitilliumText22L Rg"
     id="path3046" /><path
     d="m 81.309129,-219.53088 3.768624,0 0,-25.46368 -3.768624,0 z m 0,-31.21847 3.768624,0 0,-4.43068 -3.768624,0 z"
     style="line-height:125%;fill:#000000;font-family:TitilliumText22L Rg;-inkscape-font-specification:TitilliumText22L Rg"
     id="path3048" /><path
     d="m 90.441991,-244.99456 7.180756,25.46368 7.639103,0 7.23168,-25.46368 -3.87048,0 -6.21313,22.20433 -1.88431,0 -6.111286,-22.20433 z"
     style="line-height:125%;fill:#000000;font-family:TitilliumText22L Rg;-inkscape-font-specification:TitilliumText22L Rg"
     id="path3050" /><path
     d="m 126.92777,-222.48467 c -2.48272,-0.005 -4.22698,-0.69494 -5.23279,-2.06892 -1.00582,-1.37397 -1.50236,-3.40046 -1.48962,-6.07946 l 16.85695,0 0.20371,-2.95378 c -0.006,-4.15056 -0.87215,-7.18074 -2.59729,-9.09053 -1.72519,-1.90975 -4.27155,-2.85191 -7.63911,-2.82647 -3.27527,-0.0467 -5.8662,0.97613 -7.77278,3.06837 -1.9066,2.09229 -2.88058,5.53412 -2.92196,10.32552 -0.0552,4.33308 0.67903,7.59667 2.20261,9.79078 1.52357,2.19412 4.16754,3.2933 7.93193,3.29755 2.21639,-0.034 4.37868,-0.16976 6.48687,-0.40742 2.10816,-0.23766 3.23917,-0.37347 3.39304,-0.40742 l -0.10186,-3.10657 c -0.14962,0.0191 -1.22546,0.0955 -3.22752,0.22918 -2.0021,0.13368 -4.03282,0.21007 -6.09218,0.22917 z m -6.72241,-11.25494 c 0.0106,-2.95483 0.60051,-5.09166 1.76973,-6.41048 1.16919,-1.31879 2.85404,-1.96599 5.05453,-1.94161 2.20578,-0.0339 3.82909,0.59418 4.86993,1.88431 1.04081,1.29018 1.55645,3.4461 1.54692,6.46778 z"
     style="line-height:125%;fill:#000000;font-family:TitilliumText22L Rg;-inkscape-font-specification:TitilliumText22L Rg"
     id="path3052" /><path
     d="m 144.08107,-219.53088 3.81955,0 0,-18.48663 c 0.07,-0.0891 0.94852,-0.56018 2.63549,-1.41323 1.68696,-0.85302 3.76224,-1.55327 6.22587,-2.10076 l 0,-3.97233 c -2.53047,0.56235 -4.62485,1.32201 -6.28316,2.279 -1.65833,0.95703 -2.51773,1.48752 -2.5782,1.59148 l 0,-3.36121 -3.81955,0 z"
     style="line-height:125%;fill:#000000;font-family:TitilliumText22L Rg;-inkscape-font-specification:TitilliumText22L Rg"
     id="path3054" /><path
     d="m 178.93948,-244.53621 c -0.14537,-0.0403 -1.20423,-0.20156 -3.17659,-0.48381 -1.97239,-0.2822 -3.98614,-0.44347 -6.04125,-0.48381 -2.40952,-0.0403 -4.51663,0.49869 -6.32136,1.61694 -1.80474,1.11831 -2.75326,3.05779 -2.84557,5.81845 -0.0148,2.42225 0.70237,4.12195 2.15168,5.0991 1.4493,0.97718 3.71981,1.67107 6.81154,2.08166 2.49542,0.36074 4.20149,0.8106 5.11819,1.34957 0.91668,0.53899 1.34956,1.4472 1.29865,2.72462 -0.006,1.69758 -0.55385,2.86042 -1.64241,3.48852 -1.08858,0.6281 -2.68006,0.92518 -4.77443,0.89123 -0.92142,-0.0107 -2.03239,-0.0855 -3.33292,-0.22446 -1.30054,-0.13895 -2.45678,-0.2779 -3.46872,-0.41685 -1.01195,-0.13895 -1.54574,-0.21377 -1.60138,-0.22446 l -0.20371,3.31028 c 0.0503,0.0119 0.58346,0.0956 1.5995,0.25086 1.01603,0.1553 2.21313,0.3106 3.59132,0.46589 1.37817,0.1553 2.63564,0.23892 3.7724,0.25087 3.10973,0.0414 5.53514,-0.53792 7.27624,-1.7379 1.74106,-1.19997 2.62592,-3.26889 2.65459,-6.20677 0.0382,-2.40206 -0.64935,-4.11661 -2.06256,-5.14366 -1.41325,-1.02702 -3.78137,-1.77395 -7.10436,-2.2408 -2.46468,-0.34587 -4.13043,-0.78724 -4.99725,-1.32411 -0.86683,-0.53684 -1.27213,-1.38563 -1.21589,-2.54637 0.0318,-1.47369 0.55383,-2.48587 1.56602,-3.03654 1.01217,-0.55063 2.32355,-0.81164 3.93413,-0.78301 1.13611,0.0101 2.38917,0.0805 3.7592,0.21125 1.36999,0.1308 2.55892,0.26158 3.5668,0.39233 1.00783,0.1308 1.5366,0.20122 1.58629,0.21126 z"
     style="line-height:125%;fill:#000000;font-family:TitilliumText22L Rg;-inkscape-font-specification:TitilliumText22L Rg"
     id="path3056" /><path
     d="m 186.74601,-219.53088 3.76862,0 0,-25.46368 -3.76862,0 z m 0,-31.21847 3.76862,0 0,-4.43068 -3.76862,0 z"
     style="line-height:125%;fill:#000000;font-family:TitilliumText22L Rg;-inkscape-font-specification:TitilliumText22L Rg"
     id="path3058" /><path
     d="m 211.51357,-241.5315 0,-3.46306 -8.04652,0 0,-7.79188 -3.81955,0 0,7.79188 -3.61584,0 0,3.46306 3.61584,0 0,13.24111 c -0.0329,3.59675 0.49123,6.06673 1.57238,7.40993 1.08114,1.34321 2.91664,1.9798 5.50652,1.90978 0.99413,-0.0233 2.07421,-0.11671 3.24025,-0.2801 1.16601,-0.1634 1.80048,-0.25676 1.90341,-0.2801 l -0.20371,-3.31028 c -0.0998,0.0106 -0.67692,0.0531 -1.73153,0.12732 -1.05463,0.0743 -1.9883,0.11671 -2.801,0.12732 -1.62332,0.052 -2.6546,-0.43394 -3.09384,-1.4578 -0.43926,-1.02385 -0.63023,-2.89755 -0.57293,-5.62111 l 0,-11.86607 z"
     style="line-height:125%;fill:#000000;font-family:TitilliumText22L Rg;-inkscape-font-specification:TitilliumText22L Rg"
     id="path3060" /><path
     d="m 214.38006,-244.99456 7.23169,25.46368 3.71769,0 -3.25935,11.30587 3.81955,0 10.59289,-36.76955 -3.81955,0 -6.36592,21.79691 -1.73153,0 -6.36592,-21.79691 z"
     style="line-height:125%;fill:#000000;font-family:TitilliumText22L Rg;-inkscape-font-specification:TitilliumText22L Rg"
     id="path3062" /><path
     d="m 263.15857,-245.50383 c -3.97658,-0.0106 -6.80729,1.04191 -8.49213,3.1575 -1.68485,2.11562 -2.50393,5.35799 -2.45725,9.72712 -0.0817,4.64394 0.66736,8.07517 2.24717,10.29369 1.57981,2.21852 4.48054,3.31982 8.70221,3.30391 4.21741,-0.0117 7.10117,-1.15966 8.65129,-3.44396 1.55007,-2.2843 2.28215,-5.63489 2.19624,-10.05179 0.0286,-4.35109 -0.81804,-7.60407 -2.54,-9.75895 -1.722,-2.15484 -4.49118,-3.23068 -8.30753,-3.22752 z m 0,23.07009 c -2.92196,0.0212 -4.84447,-0.78513 -5.76752,-2.41905 -0.92306,-1.63391 -1.34321,-4.22272 -1.26045,-7.76642 -0.0446,-3.44501 0.45197,-5.8874 1.48963,-7.32717 1.03763,-1.43974 2.88375,-2.13787 5.53834,-2.09439 2.42752,-0.0265 4.193,0.71407 5.29645,2.22171 1.1034,1.50768 1.64663,3.94158 1.62967,7.3017 0.087,3.36122 -0.31619,5.88212 -1.20952,7.56271 -0.89337,1.68061 -2.7989,2.52091 -5.7166,2.52091 z"
     style="line-height:125%;fill:#000000;font-family:TitilliumText22L Rg;-inkscape-font-specification:TitilliumText22L Rg"
     id="path3064" /><path
     d="m 284.92242,-241.5315 7.43539,0 0,-3.46306 -7.43539,0 0,-2.2408 c -0.0191,-2.29594 0.261,-3.8662 0.8403,-4.71078 0.57929,-0.84451 1.57237,-1.24344 2.97925,-1.19679 0.8265,0.004 1.73258,0.0213 2.71825,0.0509 0.98564,0.0297 1.5225,0.0467 1.61058,0.0509 l 0.0509,-3.15749 c -0.10293,-0.0148 -0.7374,-0.0742 -1.90341,-0.17825 -1.16603,-0.10394 -2.24612,-0.16335 -3.24025,-0.17824 -2.46786,-0.0721 -4.2291,0.55599 -5.28371,1.88431 -1.05463,1.32839 -1.56814,3.78987 -1.54055,7.38446 l 0,2.29173 -3.20842,0 0,3.46306 3.20842,0 0,22.00062 3.76862,0 z"
     style="line-height:125%;fill:#000000;font-family:TitilliumText22L Rg;-inkscape-font-specification:TitilliumText22L Rg"
     id="path3066" /><path
     d="m 329.6553,-254.51797 c -0.055,-0.0125 -0.65799,-0.10056 -1.80886,-0.26407 -1.15092,-0.16343 -2.51967,-0.32691 -4.10625,-0.49041 -1.58663,-0.16344 -3.061,-0.25146 -4.42314,-0.26407 -3.6254,-0.0191 -6.45823,0.73212 -8.4985,2.25354 -2.04028,1.52148 -3.07792,3.9278 -3.11293,7.21895 -0.001,3.35804 0.90502,5.73253 2.71824,7.12346 1.81322,1.39097 4.53996,2.42862 8.18021,3.11294 2.84449,0.5008 4.87097,1.17983 6.07945,2.03709 1.20844,0.85729 1.79623,2.2493 1.76336,4.17604 -2e-5,2.42118 -0.62388,4.1612 -1.87158,5.22005 -1.24774,1.05887 -3.11932,1.57663 -5.61474,1.55329 -1.26659,-0.0107 -2.7001,-0.0855 -4.30053,-0.22446 -1.60045,-0.13894 -3.00001,-0.27789 -4.19868,-0.41685 -1.19868,-0.13894 -1.82867,-0.21376 -1.88997,-0.22446 l -0.40742,3.56492 c 0.0623,0.0132 0.71298,0.10563 1.95222,0.27727 1.23922,0.17164 2.69348,0.34329 4.36277,0.51493 1.66928,0.17164 3.18012,0.26407 4.53254,0.27727 3.57232,0.0318 6.35847,-0.79574 8.35845,-2.48271 1.99993,-1.68696 3.01636,-4.4243 3.04927,-8.21203 0.0169,-3.06518 -0.79364,-5.26142 -2.43178,-6.58873 -1.63818,-1.32727 -4.20577,-2.33945 -7.70276,-3.03654 -3.07899,-0.59413 -5.29857,-1.3156 -6.65875,-2.16441 -1.36019,-0.84877 -2.02649,-2.38507 -1.9989,-4.60893 0.008,-1.97128 0.6663,-3.40149 1.97344,-4.29063 1.30712,-0.88907 3.21265,-1.3262 5.71659,-1.31137 1.05312,0.0101 2.35333,0.0805 3.90066,0.21125 1.54729,0.13081 2.9305,0.26158 4.14963,0.39233 1.21909,0.13081 1.86292,0.20122 1.93147,0.21125 z"
     style="line-height:125%;fill:#000000;font-family:TitilliumText22L Rg;-inkscape-font-specification:TitilliumText22L Rg"
     id="path3068" /><path
     d="m 346.11553,-245.50383 c -3.97659,-0.0106 -6.8073,1.04191 -8.49214,3.1575 -1.68485,2.11562 -2.50393,5.35799 -2.45724,9.72712 -0.0817,4.64394 0.66736,8.07517 2.24717,10.29369 1.5798,2.21852 4.48054,3.31982 8.70221,3.30391 4.2174,-0.0117 7.10116,-1.15966 8.65128,-3.44396 1.55008,-2.2843 2.28216,-5.63489 2.19624,-10.05179 0.0286,-4.35109 -0.81804,-7.60407 -2.54,-9.75895 -1.722,-2.15484 -4.49117,-3.23068 -8.30752,-3.22752 z m 0,23.07009 c -2.92197,0.0212 -4.84447,-0.78513 -5.76752,-2.41905 -0.92307,-1.63391 -1.34322,-4.22272 -1.26045,-7.76642 -0.0446,-3.44501 0.45197,-5.8874 1.48962,-7.32717 1.03764,-1.43974 2.88375,-2.13787 5.53835,-2.09439 2.42752,-0.0265 4.193,0.71407 5.29644,2.22171 1.10341,1.50768 1.64663,3.94158 1.62968,7.3017 0.087,3.36122 -0.3162,5.88212 -1.20953,7.56271 -0.89337,1.68061 -2.79889,2.52091 -5.71659,2.52091 z"
     style="line-height:125%;fill:#000000;font-family:TitilliumText22L Rg;-inkscape-font-specification:TitilliumText22L Rg"
     id="path3070" /><path
     d="m 379.69451,-244.99456 0,20.67651 c -0.0807,0.0785 -0.82335,0.39256 -2.22808,0.94215 -1.40476,0.5496 -2.98775,0.86365 -4.74897,0.94216 -2.31933,0.0509 -3.81744,-0.62386 -4.49434,-2.02436 -0.67692,-1.4005 -0.97824,-3.83228 -0.90396,-7.29535 l 0,-13.24111 -3.76862,0 0,13.29204 c -0.087,4.65031 0.45622,7.94149 1.62967,9.87354 1.17345,1.93206 3.49913,2.86785 6.97705,2.80737 1.87369,-0.0891 3.57551,-0.44561 5.10546,-1.06947 1.52993,-0.62386 2.34052,-0.98035 2.43179,-1.06948 l 0,1.62968 3.76862,0 0,-25.46368 z"
     style="line-height:125%;fill:#000000;font-family:TitilliumText22L Rg;-inkscape-font-specification:TitilliumText22L Rg"
     id="path3072" /><path
     d="m 404.78136,-241.5315 0,-3.46306 -8.04652,0 0,-7.79188 -3.81955,0 0,7.79188 -3.61584,0 0,3.46306 3.61584,0 0,13.24111 c -0.0329,3.59675 0.49123,6.06673 1.57238,7.40993 1.08114,1.34321 2.91664,1.9798 5.50652,1.90978 0.99413,-0.0233 2.07421,-0.11671 3.24025,-0.2801 1.16601,-0.1634 1.80048,-0.25676 1.90341,-0.2801 l -0.20371,-3.31028 c -0.0998,0.0106 -0.67692,0.0531 -1.73153,0.12732 -1.05463,0.0743 -1.9883,0.11671 -2.801,0.12732 -1.62332,0.052 -2.6546,-0.43394 -3.09384,-1.4578 -0.43926,-1.02385 -0.63023,-2.89755 -0.57293,-5.62111 l 0,-11.86607 z"
     style="line-height:125%;fill:#000000;font-family:TitilliumText22L Rg;-inkscape-font-specification:TitilliumText22L Rg"
     id="path3074" /><path
     d="m 414.67583,-219.53088 0,-20.98207 c 0.0902,-0.0615 0.87743,-0.30767 2.36175,-0.73845 1.48431,-0.43074 3.1246,-0.67688 4.92086,-0.73844 2.22805,-0.0361 3.69221,0.65995 4.39248,2.08802 0.70023,1.4281 1.01853,3.80471 0.95489,7.12983 l 0,13.24111 3.81955,0 0,-13.29204 c 0.0806,-4.56116 -0.47534,-7.82688 -1.66787,-9.79715 -1.19257,-1.97023 -3.50552,-2.93148 -6.93885,-2.88376 -1.88645,0.0722 -3.6392,0.36076 -5.25825,0.86576 -1.61907,0.50506 -2.48059,0.79365 -2.58456,0.86577 l 0,-12.93555 -3.81955,0 0,37.17697 z"
     style="line-height:125%;fill:#000000;font-family:TitilliumText22L Rg;-inkscape-font-specification:TitilliumText22L Rg"
     id="path3076" /><path
     d="m 457.2236,-237.20267 c 0.002,-2.86358 -0.6642,-4.96646 -1.9989,-6.30863 -1.33474,-1.34212 -3.35061,-2.0063 -6.04762,-1.99253 -1.35839,0.0126 -2.80636,0.10062 -4.34392,0.26407 -1.53757,0.16349 -2.85728,0.32696 -3.95913,0.49041 -1.10185,0.16349 -1.6784,0.25152 -1.72964,0.26407 l 0.15278,3.31027 c 0.0512,-0.008 0.61647,-0.0654 1.6957,-0.17164 1.07921,-0.10623 2.36497,-0.21249 3.85727,-0.31877 1.49229,-0.10623 2.88367,-0.16345 4.17416,-0.17164 1.41003,-0.007 2.4986,0.36394 3.26571,1.11403 0.76708,0.75014 1.1554,1.92359 1.16497,3.52036 l 0,2.08802 -8.04652,0.76391 c -2.61747,0.20903 -4.56331,0.9114 -5.83755,2.10712 -1.27425,1.19574 -1.90872,3.00578 -1.90341,5.43013 0.0117,2.50817 0.61218,4.43068 1.80155,5.76752 1.18936,1.33684 2.89755,2.01163 5.12457,2.02436 2.50922,-0.0806 4.68424,-0.40317 6.52506,-0.96762 1.8408,-0.56444 2.80629,-0.88698 2.8965,-0.96762 0.63869,0.68222 1.42382,1.17663 2.35539,1.48326 0.93152,0.30662 2.14953,0.45728 3.65403,0.45198 l 0.15279,-3.31028 c -0.82972,-0.0849 -1.51299,-0.29707 -2.04983,-0.63659 -0.53688,-0.33951 -0.8382,-0.9082 -0.90396,-1.70607 z m -3.76862,5.19459 0,8.14837 c -0.104,0.0637 -1.00371,0.3183 -2.69915,0.76391 -1.69547,0.44562 -3.56281,0.70026 -5.60201,0.76391 -1.1533,-0.006 -2.04241,-0.40105 -2.66732,-1.18406 -0.62493,-0.783 -0.9411,-1.91613 -0.94852,-3.3994 -0.0117,-1.30394 0.32996,-2.33734 1.02491,-3.1002 0.69494,-0.76284 1.81322,-1.22331 3.35484,-1.38141 z"
     style="line-height:125%;fill:#000000;font-family:TitilliumText22L Rg;-inkscape-font-specification:TitilliumText22L Rg"
     id="path3078" /><path
     d="m 469.98046,-219.53088 0,-20.57465 c 0.0711,-0.0785 0.78193,-0.39255 2.13258,-0.94216 1.35062,-0.54957 2.91451,-0.86362 4.69168,-0.94215 2.25033,-0.0509 3.72086,0.62388 4.41158,2.02436 0.69068,1.40052 1.00261,3.8323 0.93579,7.29534 l 0,13.13926 3.81955,0 0,-13.24111 c -2e-5,-1.56919 -0.051,-3.02698 -0.15278,-4.37339 -0.10188,-1.34637 -0.25466,-2.33309 -0.45835,-2.96015 0.12518,-0.10077 0.89333,-0.42119 2.30447,-0.96126 1.41108,-0.54002 3.01953,-0.8477 4.82536,-0.92305 2.33944,-0.0541 3.83543,0.70345 4.48797,2.27263 0.65248,1.56922 0.93894,4.27473 0.8594,8.11655 l 0,12.06978 3.81955,0 0,-13.24111 c 0.0742,-4.65241 -0.49446,-7.95208 -1.70606,-9.89901 -1.21169,-1.94688 -3.5119,-2.89116 -6.90066,-2.83283 -1.82917,0.0605 -3.62011,0.37243 -5.37283,0.93579 -1.75278,0.56341 -3.03445,1.01539 -3.84502,1.35594 -0.50717,-0.6111 -1.148,-1.09491 -1.9225,-1.45143 -0.77454,-0.35647 -1.69548,-0.58564 -2.76281,-0.68752 -0.40956,-0.0488 -0.85093,-0.0658 -1.32411,-0.0509 -0.47322,0.0149 -0.96552,0.0488 -1.4769,0.10186 -1.7135,0.17403 -3.18827,0.53901 -4.42431,1.09494 -1.23606,0.55598 -1.88326,0.87003 -1.9416,0.94215 l 0,-1.73153 -3.81956,0 0,25.46368 z"
     style="line-height:125%;fill:#000000;font-family:TitilliumText22L Rg;-inkscape-font-specification:TitilliumText22L Rg"
     id="path3080" /><path
     d="m 510.12608,-208.22501 3.81956,0 0,-11.3568 c 0.39998,0.0902 1.14055,0.20265 2.2217,0.33739 1.08113,0.13475 2.24185,0.20902 3.48216,0.22281 3.91608,0.0594 6.75315,-0.95064 8.51123,-3.03018 1.75803,-2.07953 2.62167,-5.58502 2.59093,-10.51649 0.0169,-4.52722 -0.71725,-7.82264 -2.20261,-9.88628 -1.4854,-2.06359 -3.82381,-3.08001 -7.01524,-3.04927 -1.96496,0.0955 -3.70073,0.47747 -5.20732,1.14586 -1.50661,0.66845 -2.30023,1.05041 -2.38085,1.14587 l 0,-1.78246 -3.81956,0 z m 10.89846,-33.76483 c 1.84822,-0.0414 3.28267,0.65253 4.30336,2.08165 1.02064,1.42917 1.5384,3.84185 1.55328,7.23805 0.0403,3.67951 -0.49868,6.315 -1.61694,7.90647 -1.1183,1.59148 -3.05778,2.36813 -5.81845,2.32993 -1.14588,-0.0138 -2.25355,-0.0881 -3.32301,-0.22281 -1.06949,-0.13474 -1.7952,-0.24721 -2.17714,-0.33739 l 0,-17.00974 c 0.0849,-0.0827 0.84453,-0.41376 2.27899,-0.99308 1.43445,-0.57928 3.03441,-0.9103 4.79991,-0.99308 z"
     style="line-height:125%;fill:#000000;font-family:TitilliumText22L Rg;-inkscape-font-specification:TitilliumText22L Rg"
     id="path3082" /><path
     d="m 550.20467,-241.5315 0,-3.46306 -8.04652,0 0,-7.79188 -3.81955,0 0,7.79188 -3.61584,0 0,3.46306 3.61584,0 0,13.24111 c -0.0329,3.59675 0.49123,6.06673 1.57238,7.40993 1.08114,1.34321 2.91664,1.9798 5.50652,1.90978 0.99413,-0.0233 2.07421,-0.11671 3.24025,-0.2801 1.16601,-0.1634 1.80048,-0.25676 1.90341,-0.2801 l -0.20371,-3.31028 c -0.0997,0.0106 -0.67692,0.0531 -1.73153,0.12732 -1.05463,0.0743 -1.9883,0.11671 -2.801,0.12732 -1.62332,0.052 -2.6546,-0.43394 -3.09384,-1.4578 -0.43926,-1.02385 -0.63023,-2.89755 -0.57293,-5.62111 l 0,-11.86607 z"
     style="line-height:125%;fill:#000000;font-family:TitilliumText22L Rg;-inkscape-font-specification:TitilliumText22L Rg"
     id="path3084" /><path
     d="m 565.34462,-245.50383 c -3.97658,-0.0106 -6.80729,1.04191 -8.49213,3.1575 -1.68485,2.11562 -2.50393,5.35799 -2.45724,9.72712 -0.0817,4.64394 0.66735,8.07517 2.24716,10.29369 1.57981,2.21852 4.48054,3.31982 8.70221,3.30391 4.21741,-0.0117 7.10117,-1.15966 8.65129,-3.44396 1.55007,-2.2843 2.28215,-5.63489 2.19624,-10.05179 0.0286,-4.35109 -0.81804,-7.60407 -2.54,-9.75895 -1.722,-2.15484 -4.49118,-3.23068 -8.30753,-3.22752 z m 0,23.07009 c -2.92196,0.0212 -4.84447,-0.78513 -5.76752,-2.41905 -0.92306,-1.63391 -1.34321,-4.22272 -1.26045,-7.76642 -0.0446,-3.44501 0.45197,-5.8874 1.48963,-7.32717 1.03763,-1.43974 2.88375,-2.13787 5.53834,-2.09439 2.42753,-0.0265 4.193,0.71407 5.29645,2.22171 1.1034,1.50768 1.64663,3.94158 1.62967,7.3017 0.087,3.36122 -0.31619,5.88212 -1.20952,7.56271 -0.89337,1.68061 -2.7989,2.52091 -5.7166,2.52091 z"
     style="line-height:125%;fill:#000000;font-family:TitilliumText22L Rg;-inkscape-font-specification:TitilliumText22L Rg"
     id="path3086" /><path
     d="m 586.95568,-219.53088 0,-20.57465 c 0.0933,-0.0785 0.88697,-0.39255 2.38085,-0.94216 1.49386,-0.54957 3.12777,-0.86362 4.90176,-0.94215 2.25245,-0.0371 3.73147,0.66101 4.43704,2.09438 0.70554,1.43342 1.02595,3.82488 0.96125,7.17439 l 0,13.19019 3.76863,0 0,-13.24111 c 0.0796,-4.58557 -0.47429,-7.86614 -1.66151,-9.84171 -1.18726,-1.97554 -3.48536,-2.93891 -6.89429,-2.89013 -1.91085,0.0913 -3.67845,0.45625 -5.30281,1.09494 -1.62438,0.63873 -2.48802,1.00371 -2.59092,1.09494 l 0,-1.68061 -3.81956,0 0,25.46368 z"
     style="line-height:125%;fill:#000000;font-family:TitilliumText22L Rg;-inkscape-font-specification:TitilliumText22L Rg"
     id="path3088" /></g><g
   transform="scale(1,-1)"
   style="font-size:72.95999908px;font-style:normal;font-variant:normal;font-weight:normal;font-stretch:normal;text-align:start;line-height:125%;writing-mode:lr-tb;text-anchor:start;fill:#000000;fill-opacity:1;stroke:none;font-family:TitilliumText22L Rg;-inkscape-font-specification:TitilliumText22L Rg"
   id="text3039"><path
     d="m 19.980799,-289.69055 7.022309,0 4.559941,-15.9598 26.447659,0 4.833537,15.8686 6.931111,0 -17.05418,-63.38318 -15.412601,0 z m 22.617308,-56.99927 4.559941,0 9.393479,34.29076 -23.346899,0 z"
     style="font-size:91.19999695px;fill:#000000"
     id="path3091" /><path
     d="m 102.56347,-329.08844 0,-6.20152 -14.409418,0 0,-13.95342 -6.839912,0 0,13.95342 -6.475116,0 0,6.20152 6.475116,0 0,23.71169 c -0.05891,6.44093 0.87968,10.86407 2.815765,13.26943 1.936061,2.40537 5.223015,3.54535 9.860872,3.41996 1.780253,-0.0418 3.714426,-0.209 5.802525,-0.5016 2.088048,-0.2926 3.224228,-0.45979 3.408558,-0.50159 l -0.3648,-5.92793 c -0.17862,0.019 -1.21221,0.095 -3.100758,0.228 -1.888602,0.133 -3.560579,0.209 -5.015935,0.228 -2.906982,0.0931 -4.753757,-0.77708 -5.54033,-2.61057 -0.786606,-1.83347 -1.128601,-5.18882 -1.025985,-10.06607 l 0,-21.24932 z"
     style="font-size:91.19999695px;fill:#000000"
     id="path3093" /><path
     d="m 120.28212,-289.69055 0,-37.57392 c 0.16148,-0.11016 1.57126,-0.55095 4.22934,-1.32238 2.65805,-0.77135 5.5954,-1.21215 8.81209,-1.32238 3.98992,-0.0646 6.61188,1.18182 7.8659,3.73915 1.25394,2.5574 1.82393,6.81334 1.70998,12.76783 l 0,23.7117 6.83991,0 0,-23.80289 c 0.14435,-8.16797 -0.85124,-14.01609 -2.98676,-17.54438 -2.13562,-3.52821 -6.27756,-5.24958 -12.42584,-5.16413 -3.37819,0.12924 -6.51694,0.64604 -9.41629,1.55038 -2.89937,0.90443 -4.44215,1.42122 -4.62833,1.55038 l 0,-23.1645 -6.83991,0 0,66.57514 z"
     style="font-size:91.19999695px;fill:#000000"
     id="path3095" /><path
     d="m 180.51532,-294.98008 c -4.44596,-0.01 -7.56952,-1.24448 -9.37068,-3.70496 -1.80119,-2.46045 -2.69037,-6.0894 -2.66756,-10.88686 l 30.18681,0 0.36479,-5.28953 c -0.0114,-7.43267 -1.56182,-12.85899 -4.65114,-16.27899 -3.08939,-3.41991 -7.64933,-5.10709 -13.67982,-5.06153 -5.86524,-0.0836 -10.50498,1.74802 -13.91922,5.49473 -3.41426,3.74679 -5.15844,9.9103 -5.23253,18.49056 -0.0988,7.75951 1.21598,13.60383 3.94435,17.53297 2.72835,3.92915 7.46308,5.89752 14.20421,5.90513 3.96902,-0.0608 7.84117,-0.304 11.61645,-0.72959 3.77522,-0.4256 5.80059,-0.66879 6.07613,-0.72959 l -0.1824,-5.56313 c -0.26794,0.0342 -2.19451,0.171 -5.77973,0.41039 -3.58528,0.2394 -7.22183,0.3762 -10.90966,0.4104 z m -12.03824,-20.15494 c 0.019,-5.29141 1.07537,-9.11795 3.16916,-11.47966 2.09376,-2.36163 5.11091,-3.52061 9.05148,-3.47695 3.95002,-0.0608 6.85698,1.06403 8.72089,3.37436 1.86384,2.3104 2.78722,6.17115 2.77016,11.58225 z"
     style="font-size:91.19999695px;fill:#000000"
     id="path3097" /><path
     d="m 210.68563,-289.69055 6.74871,0 0,-45.59941 -6.74871,0 z m 0,-55.90488 6.74871,0 0,-7.9343 -6.74871,0 z"
     style="font-size:91.19999695px;fill:#000000"
     id="path3099" /><path
     d="m 262.79037,-334.46917 c -0.26034,-0.0722 -2.15651,-0.36095 -5.68853,-0.86639 -3.53208,-0.50535 -7.13823,-0.79415 -10.81846,-0.86639 -4.31486,-0.0721 -8.08821,0.89303 -11.32005,2.89556 -3.23187,2.00262 -4.93044,5.47577 -5.09574,10.41947 -0.0266,4.33767 1.25778,7.38143 3.85315,9.13128 2.59536,1.7499 6.6613,2.99248 12.19785,3.72775 4.46871,0.64601 7.52387,1.4516 9.16548,2.41677 1.64154,0.9652 2.41673,2.59158 2.32557,4.87914 -0.0114,3.03997 -0.99182,5.12234 -2.94117,6.24711 -1.9494,1.12479 -4.79936,1.65679 -8.54988,1.59599 -1.65005,-0.0191 -3.63953,-0.15312 -5.96846,-0.40195 -2.32896,-0.24883 -4.39951,-0.49765 -6.21166,-0.74648 -1.81216,-0.24882 -2.76806,-0.38281 -2.86769,-0.40195 l -0.3648,5.92792 c 0.0901,0.0214 1.04484,0.17114 2.86432,0.44924 1.81946,0.2781 3.9632,0.55619 6.43121,0.8343 2.46798,0.27809 4.7198,0.42784 6.75547,0.44924 5.5688,0.0741 9.91214,-0.96329 13.03003,-3.11217 3.11782,-2.14886 4.7024,-5.85381 4.75374,-11.11485 0.0684,-4.30153 -1.16283,-7.37188 -3.69356,-9.21108 -2.5308,-1.83915 -6.77154,-3.17674 -12.72223,-4.01275 -4.41366,-0.61937 -7.39662,-1.40975 -8.94889,-2.37117 -1.55229,-0.96136 -2.27808,-2.48133 -2.17737,-4.55994 0.057,-2.63903 0.99178,-4.45161 2.80437,-5.43773 1.81256,-0.98605 4.16093,-1.45344 7.04511,-1.40218 2.03449,0.0181 4.27843,0.14416 6.73182,0.3783 2.45333,0.23423 4.58243,0.46842 6.38729,0.70257 1.8048,0.23423 2.75169,0.36033 2.84068,0.37831 z"
     style="font-size:91.19999695px;fill:#000000"
     id="path3101" /><path
     d="m 299.56972,-329.08844 0,-6.20152 -14.40942,0 0,-13.95342 -6.83991,0 0,13.95342 -6.47511,0 0,6.20152 6.47511,0 0,23.71169 c -0.0589,6.44093 0.87968,10.86407 2.81577,13.26943 1.93606,2.40537 5.22301,3.54535 9.86087,3.41996 1.78025,-0.0418 3.71443,-0.209 5.80252,-0.5016 2.08805,-0.2926 3.22423,-0.45979 3.40856,-0.50159 l -0.3648,-5.92793 c -0.17862,0.019 -1.21221,0.095 -3.10076,0.228 -1.8886,0.133 -3.56057,0.209 -5.01593,0.228 -2.90698,0.0931 -4.75376,-0.77708 -5.54033,-2.61057 -0.78661,-1.83347 -1.1286,-5.18882 -1.02599,-10.06607 l 0,-21.24932 z"
     style="font-size:91.19999695px;fill:#000000"
     id="path3103" /><path
     d="m 367.20857,-352.34414 c -0.0985,-0.0225 -1.1783,-0.18009 -3.23924,-0.47289 -2.06102,-0.29267 -4.51213,-0.58541 -7.35333,-0.87821 -2.84127,-0.29267 -5.48153,-0.4503 -7.92079,-0.47288 -6.49223,-0.0341 -11.56516,1.31105 -15.2188,4.03555 -3.65366,2.72462 -5.51183,7.03376 -5.57453,12.92743 -0.002,6.01347 1.62067,10.26561 4.86774,12.75644 3.24704,2.4909 8.12998,4.34907 14.64881,5.57452 5.0938,0.89682 8.72275,2.1128 10.88686,3.64796 2.16403,1.5352 3.21662,4.02797 3.15776,7.4783 -4e-5,4.33576 -1.11722,7.45171 -3.35156,9.34788 -2.2344,1.89618 -5.58595,2.82337 -10.05467,2.78156 -2.26817,-0.0191 -4.83525,-0.15311 -7.70123,-0.40195 -2.86603,-0.24882 -5.3723,-0.49764 -7.51884,-0.74648 -2.14656,-0.24881 -3.27472,-0.3828 -3.38449,-0.40195 l -0.72959,6.38392 c 0.11146,0.0237 1.27678,0.18916 3.49596,0.49653 2.21916,0.30737 4.82339,0.61474 7.81269,0.92212 2.98928,0.30737 5.69484,0.47288 8.1167,0.49653 6.39719,0.057 11.38652,-1.42498 14.96801,-4.44594 3.58141,-3.02096 5.40158,-7.92289 5.46053,-14.70582 0.0304,-5.489 -1.42123,-9.42195 -4.35475,-11.79884 -2.9336,-2.37684 -7.53153,-4.18942 -13.79382,-5.43773 -5.51375,-1.06395 -9.4885,-2.35594 -11.92425,-3.87595 -2.43578,-1.51994 -3.62896,-4.2711 -3.57955,-8.2535 0.0152,-3.5301 1.19317,-6.09127 3.53396,-7.6835 2.34075,-1.59212 5.7531,-2.37491 10.23706,-2.34837 1.88588,0.0181 4.21426,0.14418 6.98516,0.37831 2.77083,0.23424 5.24783,0.46843 7.43101,0.70257 2.1831,0.23424 3.33603,0.36034 3.4588,0.3783 z"
     style="font-size:91.19999695px;fill:#000000"
     id="path3105" /><path
     d="m 396.68496,-336.20195 c -7.12112,-0.0189 -12.19025,1.86582 -15.2074,5.65433 -3.01717,3.78858 -4.48395,9.5949 -4.40034,17.41897 -0.1463,8.31621 1.19508,14.46072 4.02415,18.43356 2.82905,3.97285 8.02358,5.94502 15.58359,5.91653 7.55238,-0.0209 12.7165,-2.07668 15.4924,-6.16732 2.77583,-4.09064 4.08681,-10.09076 3.93295,-18.00037 0.0513,-7.79177 -1.46492,-13.61709 -4.54854,-17.47598 -3.08369,-3.8588 -8.04262,-5.78538 -14.87681,-5.77972 z m 0,41.31307 c -5.23255,0.038 -8.6753,-1.40598 -10.32826,-4.33195 -1.653,-2.92595 -2.40538,-7.56189 -2.25717,-13.90782 -0.0798,-6.16919 0.80937,-10.54293 2.66756,-13.12123 1.85816,-2.57823 5.16412,-3.82841 9.91787,-3.75055 4.34712,-0.0475 7.50868,1.27872 9.48468,3.97855 1.97594,2.6999 2.94873,7.05844 2.91836,13.07563 0.15577,6.01914 -0.56622,10.53347 -2.16597,13.54302 -1.59981,3.00957 -5.01216,4.51435 -10.23707,4.51435 z"
     style="font-size:91.19999695px;fill:#000000"
     id="path3107" /><path
     d="m 444.04912,-336.20195 c -6.73163,-0.0779 -11.57656,1.67392 -14.53481,5.25533 -2.95827,3.58149 -4.40605,9.46001 -4.34334,17.63557 -0.1292,8.8425 1.17798,15.16562 3.92155,18.96936 2.74355,3.80375 7.69868,5.65812 14.86541,5.56313 2.32364,-0.0532 4.9494,-0.266 7.87729,-0.6384 2.92783,-0.37239 4.52761,-0.58519 4.79934,-0.63839 l -0.27359,-5.92792 c -0.23564,0.0342 -1.61122,0.171 -4.12675,0.41039 -2.5156,0.2394 -4.75757,0.3762 -6.72591,0.4104 -5.46245,0.076 -9.0838,-1.28438 -10.86407,-4.08115 -1.78029,-2.79675 -2.59727,-7.48589 -2.45096,-14.06742 -0.10071,-5.95069 0.80748,-10.19143 2.72456,-12.72223 1.91706,-2.53073 5.44721,-3.76192 10.59047,-3.69355 1.96454,0.0342 4.19131,0.17103 6.68031,0.41039 2.48893,0.23943 3.84931,0.37623 4.08115,0.41039 l 0.18239,-5.92792 c -0.25463,-0.0569 -1.79741,-0.28495 -4.62834,-0.68399 -2.83099,-0.39895 -5.42255,-0.62695 -7.7747,-0.68399 z"
     style="font-size:91.19999695px;fill:#000000"
     id="path3109" /><path
     d="m 467.89813,-289.69055 6.74871,0 0,-45.59941 -6.74871,0 z m 0,-55.90488 6.74871,0 0,-7.9343 -6.74871,0 z"
     style="font-size:91.19999695px;fill:#000000"
     id="path3111" /><path
     d="m 505.59345,-294.98008 c -4.44597,-0.01 -7.56952,-1.24448 -9.37068,-3.70496 -1.80119,-2.46045 -2.69038,-6.0894 -2.66757,-10.88686 l 30.18681,0 0.3648,-5.28953 c -0.0114,-7.43267 -1.56182,-12.85899 -4.65114,-16.27899 -3.0894,-3.41991 -7.64933,-5.10709 -13.67982,-5.06153 -5.86525,-0.0836 -10.50498,1.74802 -13.91923,5.49473 -3.41426,3.74679 -5.15843,9.9103 -5.23253,18.49056 -0.0988,7.75951 1.21598,13.60383 3.94435,17.53297 2.72836,3.92915 7.46309,5.89752 14.20422,5.90513 3.96902,-0.0608 7.84116,-0.304 11.61645,-0.72959 3.77521,-0.4256 5.80058,-0.66879 6.07612,-0.72959 l -0.1824,-5.56313 c -0.26793,0.0342 -2.19451,0.171 -5.77972,0.41039 -3.58529,0.2394 -7.22184,0.3762 -10.90966,0.4104 z m -12.03825,-20.15494 c 0.019,-5.29141 1.07538,-9.11795 3.16916,-11.47966 2.09376,-2.36163 5.11092,-3.52061 9.05149,-3.47695 3.95002,-0.0608 6.85698,1.06403 8.72088,3.37436 1.86384,2.3104 2.78723,6.17115 2.77017,11.58225 z"
     style="font-size:91.19999695px;fill:#000000"
     id="path3113" /><path
     d="m 558.56346,-329.08844 0,-6.20152 -14.40941,0 0,-13.95342 -6.83991,0 0,13.95342 -6.47512,0 0,6.20152 6.47512,0 0,23.71169 c -0.0589,6.44093 0.87968,10.86407 2.81576,13.26943 1.93606,2.40537 5.22302,3.54535 9.86087,3.41996 1.78026,-0.0418 3.71443,-0.209 5.80253,-0.5016 2.08804,-0.2926 3.22423,-0.45979 3.40855,-0.50159 l -0.36479,-5.92793 c -0.17863,0.019 -1.21221,0.095 -3.10076,0.228 -1.8886,0.133 -3.56058,0.209 -5.01594,0.228 -2.90698,0.0931 -4.75375,-0.77708 -5.54033,-2.61057 -0.7866,-1.83347 -1.1286,-5.18882 -1.02598,-10.06607 l 0,-21.24932 z"
     style="font-size:91.19999695px;fill:#000000"
     id="path3115" /><path
     d="m 563.69668,-335.28996 12.95023,45.59941 6.65752,0 -5.83673,20.24614 6.83991,0 18.96936,-65.84555 -6.83991,0 -11.39986,39.03309 -3.10076,0 -11.39985,-39.03309 z"
     style="font-size:91.19999695px;fill:#000000"
     id="path3117" /></g></g></svg>